<svg id="Warstwa_1" xmlns="http://www.w3.org/2000/svg" viewBox="0 0 1054.1 495.8"><style>.st0{fill:#cdcccc}.st1{fill:#010101}</style><g id="XMLID_675_"><path id="XMLID_676_" class="st0" d="M936 126.2c-1.8 7.5 1.4 15.2 7.9 19.3 2.3 1.5 4.8 2.3 7.5 2.7.7.1 1.4.1 2 .1 4.1 0 8.1-1.4 11.3-4h.1c.3.1.5.2.8.3 1.7.6 3.3.9 4.6 1.1.5.1.9.1 1.4.1 1.9 0 3.1-.5 3.8-1.6 1.3-2.1-.2-5.3-4.5-9.7.6-2.7.7-5.5 0-8.1-1.1-4.7-3.9-8.7-7.9-11.2-2.3-1.5-4.8-2.3-7.5-2.7-.7-.1-1.4-.1-2-.1-4.1 0-8.1 1.4-11.3 4-2.8-1-5.1-1.5-6.9-1.5-1.8 0-3.1.5-3.8 1.6-1.6 2.6 1.5 6.7 4.5 9.7zm37.6 16.9c-.1.2-.5.6-2 .6-1.3 0-3-.3-5.1-1 .8-.9 1.5-1.8 2.1-2.7.6-1 1.1-2 1.6-3.1 3.5 3.7 3.8 5.7 3.4 6.2zm-38.3-26c1.3 0 3.1.3 5.1 1-.8.8-1.5 1.8-2.1 2.7-.6 1-1.1 2-1.6 3.1-3.2-3.5-3.9-5.5-3.4-6.3.2-.3 1-.5 2-.5zm4.8 4.9c2.9-4.6 8-7.4 13.4-7.4.6 0 1.2 0 1.8.1 2.4.3 4.6 1.1 6.6 2.3 3.6 2.3 6.1 5.8 7 9.9.9 4.1.2 8.4-2 11.9-.7 1.1-1.6 2.2-2.6 3.1-4.2-1.6-8.9-4-13.7-7-4.8-3-9-6.2-12.2-9.3.4-1.3 1-2.5 1.7-3.6zm-2.3 6c3.2 2.9 7.3 6 11.6 8.7 4.4 2.8 8.9 5.1 12.9 6.7-2.6 1.8-5.8 2.8-8.9 2.8-.6 0-1.2 0-1.8-.1-2.4-.3-4.6-1.1-6.6-2.3-5.3-3.3-8.1-9.6-7.2-15.8z"/></g><path id="XMLID_672_" class="st0" d="M39.3 466.6c.3-.3.5-.6.7-.9.2.3.5.6.8.9.3.3.7.6 1 .8-.4.2-.7.5-1 .8-.3.3-.5.6-.7.8-.2-.3-.4-.6-.7-.8-.3-.3-.7-.6-1.1-.9.3-.1.7-.3 1-.7zm-3.6 1.8s1.4.6 2.2 1.4c.6.6 1 1.6 1.2 2 .2.4.5.7 1 .7.4 0 .8-.3 1-.7 0 0 .4-1.2 1.2-2 .6-.6 1.8-1.2 2.2-1.4.4-.2.7-.6.6-1 0-.4-.3-.8-.7-1 0 0-1.2-.4-2.1-1.3-.6-.6-1.1-1.7-1.2-2-.1-.4-.5-.7-1-.7-.4 0-.8.2-1 .6-.2.4-.7 1.5-1.3 2.1-.8.8-2.1 1.3-2.1 1.3-.4.2-.7.5-.7 1s.3.9.7 1z"/><path id="XMLID_669_" class="st0" d="M25.8 489.9c-.5.5-.8 1-1.1 1.5-.3-.5-.7-1-1.1-1.4-.5-.5-1.2-1-1.8-1.4.5-.3 1.1-.8 1.6-1.3.4-.5.9-1 1.2-1.6.3.5.7 1.1 1.2 1.6s1.1 1 1.7 1.3c-.6.3-1.2.8-1.7 1.3zm4.4-2.3s-1.6-.6-2.8-1.8c-1-1-1.7-2.7-1.7-2.8-.1-.4-.5-.7-1-.7-.4 0-.8.2-1 .6-.2.5-.9 2-1.7 2.8-1.1 1.1-2.8 1.8-2.8 1.8-.4.2-.7.5-.7 1 0 .4.3.8.7 1 0 0 1.9.7 3 1.8.8.8 1.4 2.2 1.6 2.7.2.4.5.7 1 .7.4 0 .8-.3 1-.7 0 0 .6-1.6 1.6-2.7 1-1 2.9-1.8 2.9-1.8.4-.2.7-.6.7-1-.1-.4-.4-.8-.8-.9z"/><path id="XMLID_666_" class="st0" d="M727.8 136.6c.2-.2.5-.5.7-.8.2.3.4.6.7.8.3.3.6.5.9.7-.3.2-.6.5-.9.7-.2.2-.4.5-.6.7-.2-.3-.4-.5-.6-.7-.3-.3-.6-.5-1-.8.3-.1.6-.4.8-.6zm-3.1 1.6s1.2.5 2 1.2c.5.5.9 1.4 1 1.8.1.4.5.6.9.6s.7-.3.9-.6c0 0 .4-1.1 1.1-1.8.6-.6 1.6-1.1 1.9-1.2.4-.1.6-.5.6-.9s-.3-.7-.6-.9c0 0-1.1-.4-1.9-1.2-.5-.5-1-1.5-1.1-1.8-.1-.4-.5-.6-.9-.6s-.7.2-.9.6c-.1.3-.6 1.3-1.1 1.8-.7.7-1.8 1.2-1.9 1.2-.4.1-.6.5-.6.9s.2.7.6.9z"/><path id="XMLID_663_" class="st0" d="M794.7 113.2c-.4.4-.7.9-1 1.3-.3-.4-.6-.9-1-1.3-.5-.5-1-.9-1.6-1.2.5-.3 1-.7 1.4-1.1.4-.4.8-.9 1.1-1.4.3.5.6 1 1.1 1.4.5.5 1 .9 1.5 1.2-.5.3-1 .6-1.5 1.1zm3.9-2.1s-1.4-.5-2.5-1.6c-.9-.9-1.5-2.4-1.5-2.4-.1-.4-.5-.6-.8-.6-.4 0-.7.2-.9.6-.2.5-.8 1.8-1.5 2.5-1 1-2.5 1.6-2.5 1.6-.4.1-.6.5-.6.9s.2.7.6.9c0 0 1.7.7 2.6 1.6.7.7 1.2 2 1.4 2.4.1.4.5.6.9.6s.7-.3.9-.6c0 0 .5-1.4 1.4-2.4.9-.9 2.6-1.6 2.6-1.6.4-.1.6-.5.6-.9-.1-.5-.4-.8-.7-1z"/><path id="XMLID_660_" class="st0" d="M759.7 155.8l-.4.4c-.1-.1-.2-.3-.3-.4-.2-.2-.4-.3-.6-.5.2-.1.3-.3.5-.4.1-.1.3-.3.4-.5.1.2.3.3.4.5l.5.5c-.1.1-.3.3-.5.4zm2.8-1.3s-.8-.3-1.4-.9c-.4-.4-.7-1.1-.8-1.4-.1-.4-.5-.6-.9-.6s-.7.2-.9.6c-.1.3-.5 1-.9 1.4-.6.6-1.4.9-1.4.9-.4.1-.6.5-.6.9s.2.7.6.9c.3.1 1 .5 1.5.9.4.4.7 1.1.8 1.3.1.4.5.6.9.6s.7-.3.9-.6c.1-.2.4-.9.8-1.3s1.2-.8 1.5-.9c.4-.1.6-.5.6-.9-.1-.4-.4-.8-.7-.9z"/><path id="XMLID_657_" class="st0" d="M3.8 107.9c.2-.2.5-.5.7-.8.2.3.4.6.7.8.3.3.6.5.9.7-.3.2-.6.5-.9.7-.2.2-.4.5-.6.7-.2-.3-.4-.5-.6-.7-.3-.3-.6-.5-1-.8.2-.1.5-.4.8-.6zm-3.2 1.5s1.2.5 1.9 1.2c.5.5.9 1.4 1 1.8.1.4.5.6.9.6s.7-.3.9-.6c0 0 .4-1.1 1.1-1.7.6-.6 1.6-1 1.9-1.2.4-.1.6-.5.6-.9s-.3-.7-.6-.8c0 0-1.1-.4-1.8-1.2-.5-.5-1-1.5-1.1-1.8-.1-.4-.5-.6-.9-.6s-.7.2-.9.6c-.2.2-.6 1.2-1.2 1.7-.7.7-1.8 1.2-1.8 1.2-.4.1-.6.5-.6.9s.2.7.6.8z"/><path id="XMLID_654_" class="st0" d="M19.5 116.8c-.4.4-.7.9-1 1.3-.3-.4-.6-.9-1-1.3-.5-.5-1-.9-1.6-1.2.5-.3 1-.7 1.4-1.1.4-.4.8-.9 1.1-1.4.3.5.6 1 1.1 1.4.5.5 1 .9 1.5 1.1-.5.3-1 .7-1.5 1.2zm3.9-2.1s-1.4-.5-2.5-1.6c-.9-.9-1.5-2.4-1.5-2.4-.1-.4-.5-.6-.8-.6-.4 0-.7.2-.9.6-.2.5-.8 1.8-1.5 2.5-1 1-2.5 1.6-2.5 1.6-.4.1-.6.5-.6.9s.2.7.6.9c0 0 1.7.7 2.6 1.6.7.7 1.2 1.9 1.4 2.4.1.4.5.6.9.6s.7-.3.9-.6c0 0 .5-1.4 1.4-2.4.9-.9 2.6-1.6 2.6-1.6.4-.1.6-.5.6-.9-.1-.5-.4-.9-.7-1z"/><path id="XMLID_651_" class="st0" d="M10.3 128.6l-.4.4c-.1-.1-.2-.3-.3-.4-.2-.2-.4-.3-.6-.5.2-.1.3-.3.5-.4.1-.1.3-.3.4-.5.1.2.3.3.4.5l.5.5c-.1.1-.3.2-.5.4zm2.8-1.4s-.8-.3-1.4-.9c-.4-.4-.7-1.1-.8-1.4-.1-.4-.5-.6-.9-.6s-.7.2-.9.6c-.1.3-.5 1-.9 1.4-.6.6-1.4.9-1.4.9-.4.1-.6.5-.6.9s.2.7.6.9c.3.1 1 .5 1.5.9.4.4.7 1.1.8 1.3.1.4.5.6.9.6s.7-.3.9-.6c.1-.2.4-.9.8-1.3s1.2-.8 1.5-.9c.4-.1.6-.5.6-.9-.1-.4-.4-.7-.7-.9z"/><path id="XMLID_648_" class="st0" d="M903.2 117.4c-.4 0-.7.1-1.1.1.1-.4.1-.7.1-1.1 0-.4 0-.8-.1-1.2.4.1.8.1 1.2.1.4 0 .7 0 1-.1-.1.3-.1.7-.1 1 0 .4.1.9.1 1.3-.3 0-.7-.1-1.1-.1zm3.6 1.2s-.6-1.3-.6-2.4c0-.7.4-1.8.6-2.1.2-.4.1-.8-.2-1.1-.3-.3-.8-.4-1.1-.2 0 0-1.1.5-2.1.5-.9 0-2-.4-2.4-.6-.4-.2-.8-.1-1.1.2-.3.3-.4.8-.2 1.1 0 0 .5 1.1.5 2.3 0 .8-.4 1.9-.5 2.2-.2.4-.1.8.2 1.1.3.3.7.4 1.1.2.4-.1 1.5-.5 2.3-.5 1.1 0 2.3.5 2.3.5.4.2.8.1 1.1-.2.2-.2.3-.6.1-1z"/><path id="XMLID_645_" class="st0" d="M898 98.7c.6 0 1.2-.1 1.7-.2-.1.5-.2 1.1-.2 1.7 0 .7.1 1.4.3 2.1-.6-.1-1.3-.2-1.9-.2-.6 0-1.3.1-1.9.2.1-.6.2-1.2.2-1.9s-.1-1.4-.2-2c.6.2 1.3.3 2 .3zm-4.5-1.4s.7 1.5.7 3.1c0 1.4-.7 3-.7 3-.2.4-.1.8.2 1.1.3.3.7.4 1.1.2.5-.2 2-.7 3-.7 1.5 0 3.1.7 3.1.7.4.2.8.1 1.1-.2.3-.3.4-.7.2-1.1 0 0-.8-1.7-.8-3.2 0-1 .5-2.4.8-2.9.2-.4.1-.8-.2-1.1-.3-.3-.8-.4-1.1-.2 0 0-1.5.7-2.9.7s-3.2-.7-3.2-.7c-.4-.2-.8-.1-1.1.2-.3.3-.4.7-.2 1.1z"/><path id="XMLID_642_" class="st0" d="M914 96.7h.6v.6c0 .3 0 .5.1.8-.2 0-.5-.1-.7-.1-.2 0-.4 0-.7.1 0-.2 0-.4.1-.7 0-.3 0-.5-.1-.7.2-.1.4 0 .7 0zm-3.1-1.1s.4.8.4 1.7c0 .6-.3 1.4-.4 1.7-.2.4-.1.8.2 1.1.3.3.7.4 1.1.2.3-.1 1.1-.4 1.7-.4.9 0 1.7.4 1.7.4.4.2.8.1 1.1-.2.3-.3.4-.7.2-1.1-.1-.3-.4-1.1-.4-1.8 0-.6.3-1.4.4-1.6.2-.4.1-.8-.2-1.1-.3-.3-.8-.4-1.1-.2-.2.1-1 .4-1.6.4-.6 0-1.5-.3-1.8-.4-.4-.2-.8-.1-1.1.2-.4.3-.4.7-.2 1.1z"/><path id="XMLID_639_" class="st0" d="M139.6 292c-.3.2-.7.5-1 .8-.2.2-.4.5-.6.7-.2-.3-.4-.5-.6-.8-.3-.3-.6-.5-.9-.7.3-.2.6-.5.9-.7.3-.3.5-.5.7-.8.2.3.4.6.7.8.2.2.5.5.8.7zm2.9 0c0-.4-.2-.7-.6-.9 0 0-1.1-.4-1.9-1.2-.5-.5-1-1.5-1.1-1.9-.2-.4-.5-.6-.9-.6s-.7.3-.9.6c-.1.3-.5 1.3-1.1 1.8-.8.8-1.9 1.2-1.9 1.2-.4.1-.6.5-.6.9s.2.8.6.9c.4.1 1.4.6 1.9 1.2.7.7 1.1 1.8 1.1 1.8.1.4.5.6.9.6s.7-.2.9-.6c.1-.3.5-1.3 1-1.8.7-.7 2-1.2 2-1.2.4-.1.6-.4.6-.8z"/><path id="XMLID_636_" class="st0" d="M121.2 299.1c.5-.3 1-.7 1.5-1.2.4-.4.8-.9 1.1-1.4.3.5.7 1 1.1 1.4.5.5 1 .8 1.5 1.1-.5.3-1.1.7-1.6 1.2-.4.4-.7.8-1 1.3-.3-.4-.6-.9-1-1.3-.6-.4-1.1-.8-1.6-1.1zm-3.1 0c0 .4.2.8.6.9 0 0 1.7.7 2.6 1.6 1 1 1.5 2.4 1.5 2.4.1.4.5.6.9.6s.7-.2.9-.6c.2-.4.7-1.7 1.4-2.4 1-1 2.6-1.6 2.7-1.7.4-.1.6-.5.6-.9s-.2-.7-.6-.9c0 0-1.5-.6-2.5-1.6-.7-.7-1.4-2.1-1.6-2.5-.1-.4-.5-.6-.9-.6s-.7.2-.9.6c0 0-.6 1.6-1.5 2.5-1.1 1.1-2.5 1.6-2.5 1.6-.4.2-.6.6-.7 1z"/><path id="XMLID_633_" class="st0" d="M158.2 304.1c.2-.1.4-.3.5-.5.1-.1.3-.3.4-.5.1.2.3.3.4.5.2.2.3.3.5.4-.2.1-.4.3-.6.5-.1.1-.2.3-.3.4-.1-.1-.2-.3-.4-.4-.1-.1-.3-.2-.5-.4zm-2.8 0c0 .4.2.8.6.9.3.1 1.1.5 1.5.9.4.4.7 1.1.8 1.3.1.4.5.6.9.6s.7-.2.9-.6c.1-.2.4-1 .8-1.4.5-.5 1.2-.8 1.5-.9.4-.1.6-.5.6-.9s-.2-.7-.6-.9c0 0-.9-.3-1.4-.9-.4-.4-.8-1.2-.9-1.4-.1-.4-.5-.5-.9-.6-.4 0-.7.3-.9.6-.1.2-.4 1-.8 1.4-.6.6-1.4.9-1.4.9-.5.2-.7.6-.7 1z"/><path id="XMLID_630_" class="st0" d="M183.9 242.6l.6-.6c.2-.2.3-.4.5-.6.1.2.3.4.5.6.2.2.4.4.6.5-.2.2-.5.4-.7.6-.1.2-.3.3-.4.5-.1-.2-.3-.4-.4-.5-.2-.1-.5-.3-.7-.5zm-3.5 0c0 .5.3.9.7 1.1.3.1 1.3.6 1.8 1.1.5.5.9 1.4 1 1.6.2.5.6.8 1.1.8.5 0 .9-.3 1.1-.7.1-.3.5-1.2 1-1.7.6-.6 1.5-1 1.8-1.1.4-.2.7-.6.7-1.1 0-.5-.3-.9-.7-1.1 0 0-1-.4-1.7-1.1-.5-.5-.9-1.4-1.1-1.7-.2-.4-.6-.7-1.1-.7-.5 0-.9.3-1 .7-.1.3-.5 1.2-1 1.7-.7.7-1.7 1.1-1.7 1.1-.5.2-.9.6-.9 1.1z"/><path id="XMLID_627_" class="st0" d="M912.8 396.6c.4-.4.8-.9 1.1-1.4.3.5.6 1 1 1.3.5.5 1.1.9 1.7 1.3-.5.3-1 .7-1.5 1.2-.4.4-.8 1-1.1 1.5-.3-.5-.7-1-1.1-1.5-.5-.5-1.1-.9-1.6-1.2.5-.3 1.1-.7 1.5-1.2zm-4.1 2.2s1.5.5 2.7 1.7c1 1 1.6 2.6 1.6 2.6.1.4.5.6.9.6s.8-.2.9-.6c.2-.5.9-1.9 1.6-2.6 1.1-1.1 2.6-1.7 2.7-1.7.4-.1.6-.5.6-.9s-.2-.8-.6-.9c0 0-1.8-.7-2.8-1.7-.7-.7-1.3-2.1-1.5-2.5-.1-.4-.5-.6-.9-.6s-.8.3-.9.7c0 0-.5 1.5-1.5 2.5s-2.7 1.7-2.8 1.7c-.4.2-.6.5-.6.9 0 .3.2.7.6.8z"/><path id="XMLID_624_" class="st0" d="M922.6 384l.4-.4c.1.1.2.3.4.4.2.2.4.4.6.5-.2.1-.4.3-.5.5-.1.1-.3.3-.4.5-.1-.2-.3-.3-.4-.5-.2-.2-.4-.3-.6-.5l.5-.5zm-2.9 1.5s.9.3 1.5.9c.4.4.8 1.2.9 1.5.1.4.5.6.9.6s.8-.2.9-.6c.1-.3.5-1.1.9-1.5.6-.6 1.5-.9 1.5-.9.4-.1.6-.5.6-.9s-.2-.8-.6-.9c-.3-.1-1.1-.5-1.6-1-.4-.4-.7-1.2-.8-1.4-.1-.4-.5-.6-.9-.6s-.8.3-.9.7c-.1.2-.4.9-.9 1.4-.5.5-1.3.9-1.6 1-.4.2-.6.5-.6.9 0 .3.3.6.7.8z"/><path id="XMLID_621_" class="st0" d="M984.9 159.2c-.4 0-.8.1-1.1.1.1-.4.1-.8.1-1.1 0-.4 0-.9-.1-1.3.4.1.8.1 1.3.1.4 0 .7 0 1.1-.1-.1.3-.1.7-.1 1 0 .4.1.9.2 1.3-.6.1-1 0-1.4 0zm3.6 1.2s-.6-1.3-.6-2.4c0-.8.4-1.8.6-2.2.2-.4.1-.8-.2-1.1-.3-.3-.8-.4-1.2-.2 0 0-1.1.5-2.2.5-.9 0-2-.4-2.4-.6-.4-.2-.8-.1-1.1.2-.3.3-.4.8-.2 1.1 0 0 .5 1.1.5 2.3 0 .8-.4 1.9-.6 2.2-.2.4-.1.8.2 1.1.3.3.7.4 1.1.2.4-.2 1.5-.5 2.3-.5 1.2 0 2.3.5 2.3.5.4.2.8.1 1.1-.2.5 0 .6-.5.4-.9z"/><path id="XMLID_618_" class="st0" d="M71.1 161.1c.3-.3.5-.6.7-.9.2.3.5.6.8.9.3.3.7.6 1 .8-.4.2-.7.5-1 .8-.3.3-.5.6-.7.8-.2-.3-.4-.6-.7-.8-.3-.3-.7-.6-1.1-.9.4-.2.7-.4 1-.7zm-3.5 1.8s1.4.6 2.2 1.4c.6.6 1 1.6 1.2 2 .2.4.5.7 1 .7.4 0 .8-.3 1-.7 0 0 .4-1.2 1.2-2 .6-.6 1.8-1.2 2.2-1.4.4-.2.7-.6.6-1 0-.4-.3-.8-.7-1 0 0-1.2-.4-2.1-1.3-.6-.6-1.1-1.7-1.2-2-.1-.4-.5-.7-1-.7-.4 0-.8.2-1 .6-.2.4-.7 1.5-1.3 2.1-.8.8-2.1 1.3-2.1 1.3-.4.2-.7.5-.7 1 0 .4.2.8.7 1z"/><path id="XMLID_615_" class="st0" d="M317.2 229.8c.3-.3.5-.6.7-.9.2.3.5.6.8.9.3.3.7.6 1 .8-.4.2-.7.5-1 .8-.3.3-.5.6-.7.8-.2-.3-.4-.6-.7-.8-.3-.3-.7-.6-1.1-.9.4-.1.7-.4 1-.7zm-3.6 1.8s1.4.6 2.2 1.4c.6.6 1 1.6 1.2 2 .2.4.5.7 1 .7.4 0 .8-.3 1-.7 0 0 .4-1.2 1.2-2 .6-.6 1.8-1.2 2.2-1.4.4-.2.7-.6.6-1 0-.4-.3-.8-.7-1 0 0-1.2-.4-2.1-1.3-.6-.6-1.1-1.7-1.2-2-.1-.4-.5-.7-1-.7-.4 0-.8.2-1 .6-.2.4-.7 1.5-1.3 2.1-.8.8-2.1 1.3-2.1 1.3-.4.2-.7.5-.7 1 .1.5.3.9.7 1z"/><path id="XMLID_612_" class="st0" d="M18.9 331.2c.3-.3.5-.6.7-.9.2.3.5.6.8.9.3.3.7.6 1 .8-.4.2-.7.5-1 .8-.3.3-.5.6-.7.8-.2-.3-.4-.6-.7-.8-.3-.3-.7-.6-1.1-.9.3-.1.7-.4 1-.7zm-3.6 1.8s1.4.6 2.2 1.4c.6.6 1 1.6 1.2 2 .2.4.5.7 1 .7.4 0 .8-.3 1-.7 0 0 .4-1.2 1.2-2 .6-.6 1.8-1.2 2.2-1.4.4-.2.7-.6.6-1 0-.4-.3-.8-.7-1 0 0-1.2-.4-2.1-1.3-.6-.6-1.1-1.7-1.2-2-.1-.4-.5-.7-1-.7-.4 0-.8.2-1 .6-.2.4-.7 1.5-1.3 2.1-.8.8-2.1 1.3-2.1 1.3-.4.2-.7.5-.7 1s.3.9.7 1z"/><path id="XMLID_448_" class="st0" d="M211.4 405.7c-12.3 0-22.4-10-22.4-22.4 0-10.3 7.1-19.1 16.7-21.6-4.3 4.6-6.7 10.7-6.7 17.1 0 12.7 9.5 23.3 21.8 24.9-2.9 1.3-6.1 2-9.4 2zm14-4.6h-1.3c-12.3 0-22.4-10-22.4-22.4 0-7.2 3.3-13.7 9.1-18 .5-.4.7-1 .5-1.5-.2-.6-.8-.9-1.3-.9-13.2.8-23.6 11.7-23.6 25 0 13.8 11.2 25.1 25.1 25.1 5.4 0 10.5-1.7 14.8-4.9.5-.4.7-1 .5-1.5-.3-.6-.9-1-1.4-.9z"/><path id="XMLID_445_" class="st0" d="M225.5 347.1c.3-.3.5-.5.7-.8.2.3.4.6.7.8.3.3.6.6.9.8-.3.2-.7.5-.9.8-.2.2-.5.5-.6.8-.2-.3-.4-.5-.6-.8-.3-.3-.7-.6-1-.8.2-.3.5-.5.8-.8zm-3.3 1.6s1.3.5 2 1.2c.5.5.9 1.5 1.1 1.8.1.4.5.6.9.6s.8-.3.9-.7c0 0 .4-1.1 1.1-1.8.6-.6 1.6-1.1 2-1.2.4-.2.6-.5.6-.9s-.3-.8-.7-.9c0 0-1.1-.4-1.9-1.2-.6-.6-1-1.5-1.1-1.9-.1-.4-.5-.6-.9-.6s-.8.2-.9.6c-.1.4-.7 1.4-1.2 1.9-.8.8-1.9 1.2-1.9 1.2-.4.1-.6.5-.6.9-.1.5.2.9.6 1z"/><path id="XMLID_442_" class="st0" d="M241.8 356.3c-.4.4-.8.9-1 1.3-.3-.5-.6-.9-1-1.3-.5-.5-1.1-.9-1.6-1.2.5-.3 1-.7 1.5-1.2.4-.4.8-.9 1.1-1.4.3.5.7 1 1.1 1.4.5.5 1 .9 1.5 1.2-.5.4-1.1.8-1.6 1.2zm4-2.1s-1.5-.5-2.6-1.6c-.9-.9-1.5-2.5-1.5-2.5-.1-.4-.5-.6-.9-.6s-.8.2-.9.6c-.2.5-.9 1.8-1.6 2.6-1 1-2.6 1.6-2.6 1.6-.4.1-.6.5-.6.9s.2.8.6.9c0 0 1.7.7 2.7 1.7.7.7 1.3 2 1.5 2.5.1.4.5.6.9.6s.8-.3.9-.7c0 0 .5-1.5 1.5-2.5s2.7-1.7 2.7-1.7c.4-.2.6-.5.6-.9s-.3-.7-.7-.9z"/><path id="XMLID_439_" class="st0" d="M232.3 368.6l-.4.4c-.1-.1-.2-.3-.4-.4-.2-.2-.4-.4-.6-.5.2-.1.4-.3.5-.5.1-.1.3-.3.4-.5.1.2.3.3.4.5.2.2.4.3.5.5 0 .2-.2.4-.4.5zm2.8-1.4s-.8-.3-1.5-.9c-.4-.4-.8-1.2-.9-1.4-.1-.4-.5-.6-.9-.6s-.8.2-.9.6c-.1.3-.5 1.1-.9 1.5-.6.6-1.5.9-1.5.9-.4.1-.6.5-.6.9s.2.8.6.9c.3.1 1.1.5 1.6 1 .4.4.7 1.2.8 1.4.1.4.5.6.9.6s.8-.3.9-.7c.1-.2.4-.9.8-1.4.4-.4 1.3-.8 1.5-.9.4-.2.6-.5.6-.9.2-.5-.1-.8-.5-1z"/><path id="XMLID_436_" class="st0" d="M266.3 408.4l-1.7-1.7 1.7-1.7 1.7 1.7-1.7 1.7zm5.4-2.8H270l-2.6-2.6v-1.7c0-.6-.5-1.1-1.1-1.1-.6 0-1.1.5-1.1 1.1v1.7l-2.6 2.6h-1.7c-.6 0-1.1.5-1.1 1.1s.5 1.1 1.1 1.1h1.7l2.6 2.6v1.7c0 .6.5 1.1 1.1 1.1.6 0 1.1-.5 1.1-1.1v-1.7l2.6-2.6h1.7c.6 0 1.1-.5 1.1-1.1s-.5-1.1-1.1-1.1z"/><path id="XMLID_435_" class="st0" d="M262 412.1c0 1.4-2.2 1.4-2.2 0s2.2-1.4 2.2 0"/><path id="XMLID_398_" class="st0" d="M731.4 107.4c-1.5 0-2.9-.7-3.8-1.8-1.7-2.1-1.4-5.2.7-7l.4-.3-5.6-10.3h-.5c-1.1 0-2.1-.5-2.8-1.4-.3-.4-.5-.8-.5-.9l.1-.4h-.4l-14.2-3-.1.2c-.2.4-.7.9-1.1 1.3-.9.7-2 1.1-3.1 1.1-1.5 0-2.9-.7-3.8-1.8-.7-.9-1.1-2.2-1.1-3.6v-.3l-10.4-3.5-.2.3c-.2.3-.6.8-1 1.2-.8.6-1.8 1-2.8 1-1.4 0-2.7-.6-3.5-1.6l-.5-.6-16.5 5.7v.3c.2 2.1-.6 4.1-2.2 5.4-1.1.9-2.5 1.4-4 1.4-1.9 0-3.7-.9-4.9-2.3-1.1-1.3-1.6-3-1.4-4.6.2-1.7 1-3.2 2.3-4.2 1.1-.9 2.5-1.4 4-1.4 1.9 0 3.7.8 4.9 2.3.1.1.1.2.2.3.1.2.2.3.3.5l.2.2 16.4-5.6v-.3c.1-1.1.5-2.6 1.7-3.6.8-.6 1.8-1 2.8-1 1.4 0 2.7.6 3.5 1.6.6.8 1 1.7 1 2.5v.3l10.8 3.6.2-.3c.2-.3.5-.6.9-.9.9-.7 2-1.1 3.1-1.1 1.5 0 2.9.7 3.8 1.8.7.8 1.1 1.9 1.1 3v.3l14 3 .3-.5c.3-.4.5-.7.8-.9.7-.5 1.4-.8 2.3-.8 1.1 0 2.1.5 2.8 1.3l.3.3 30.8-7.9v-.3c.2-1.6.9-2.9 2.2-3.9 1.1-.9 2.4-1.4 3.8-1.4 1.8 0 3.6.8 4.8 2.3 1.1 1.3 1.6 3 1.4 4.6-.2 1.7-1 3.2-2.3 4.2-.5.4-1.1.7-1.6.9l-.2.1.3 11.1.3.1c1.1.4 2 .9 2.6 1.6.8 1 1.2 2.3 1.1 3.6s-.8 2.5-1.8 3.3c-.9.7-2 1.1-3.1 1.1-1.5 0-2.9-.7-3.8-1.8 0 0 0-.1-.1-.1-.1-.2-.2-.4-.3-.5l-.1-.2-23.5 4.1-.1.2c-.4 1.1-.9 2-1.6 2.6-1.1 1-2.2 1.4-3.3 1.4zm.1-7.6c-.6 0-1.3.2-1.8.6-1.2 1-1.4 2.7-.4 3.9.5.7 1.3 1 2.2 1 .6 0 1.3-.2 1.8-.6.6-.5 1.1-1.3 1.1-2.1 0-.7-.2-1.4-.7-1.8-.6-.7-1.4-1-2.2-1zm.2-2.4c1.4 0 2.7.7 3.7 1.9.4.5.8 1.2.9 1.7l.1.4 23-3.9v-.3c.1-1.5.7-2.9 1.9-3.8.5-.4 1.2-.8 1.7-.9l.3-.1-.3-11.2h-.4c-1.8-.1-3.4-.9-4.5-2.3-.5-.7-1-1.4-1.2-2.1l-.1-.4-30.3 7.8v.3c0 .7-.3 1.4-1 2.2l-.2.2 5.5 10.5h.9zm32.7-3c-.6 0-1.3.2-1.8.6-.6.5-1 1.1-1 1.9-.1.7.1 1.5.6 2 .5.7 1.3 1 2.1 1 .6 0 1.3-.2 1.8-.6.6-.5 1-1.3 1-2.1 0-.7-.2-1.4-.7-1.8-.4-.6-1.1-1-2-1zM654.3 78.2c-1 0-1.9.3-2.6.9-.9.7-1.4 1.7-1.5 2.8-.1 1.1.2 2.2.9 3 .8 1 2 1.5 3.2 1.5 1 0 1.9-.3 2.6-.9.9-.7 1.4-1.7 1.5-2.8.1-1.1-.2-2.2-.9-3-.8-1-2-1.5-3.2-1.5zm68.5 4.7c-.3 0-.6.1-.9.3-.3.2-.5.6-.5 1s.1.8.3 1.1c.3.3.7.5 1.1.5.3 0 .6-.1.9-.3.3-.2.5-.6.5-1s-.1-.8-.3-1.1c-.3-.3-.7-.5-1.1-.5zM700.3 77c-.6 0-1.3.2-1.8.6-1.2 1-1.4 2.7-.4 3.9.5.7 1.3 1 2.1 1 .6 0 1.3-.2 1.8-.6.6-.5 1-1.1 1-1.9.1-.7-.1-1.5-.6-2-.5-.6-1.3-1-2.1-1zm62.7-6c-1 0-1.9.3-2.6.9-.9.7-1.4 1.7-1.5 2.8-.1 1.1.2 2.2.9 3 .8 1 2 1.5 3.2 1.5 1 0 1.9-.3 2.6-.9 1.7-1.4 2-4.1.6-5.8-.8-.9-2-1.5-3.2-1.5zm-82.2 0c-.5 0-1.1.2-1.5.5-.5.4-.8.9-.8 1.6-.1.6.1 1.2.5 1.7s1.1.8 1.8.8c.5 0 1.1-.2 1.5-.5.5-.4.8-1 .8-1.6.1-.6-.1-1.2-.5-1.7s-1.1-.8-1.8-.8z"/><g id="XMLID_54_"><path id="XMLID_92_" class="st0" d="M140.6 264c-1.1 0-2.1-.4-2.8-1-1.2-1.2-1.4-3.2-.4-5.6.2-.6.5-1.2.9-1.9l-4.6-4.6c-.1.6 0 1.1.3 1.3.4.4.4 1 0 1.4-.2.2-.4.3-.7.3-.3 0-.5-.1-.7-.3l-9.1-9.1c-1-1-1.2-2.5-.5-4.4.6-1.6 1.7-3.4 3.2-4.9 2.2-2.2 4.9-3.6 6.9-3.6.7 0 1.4.2 1.9.5.3.1.5.2.6.3l9.1 9.1c.2.2.3.4.3.7 0 .3-.1.5-.3.7l-.1.1c-.2.2-.4.3-.7.3-.3 0-.5-.1-.7-.3-.3-.3-.7-.3-1-.3h-.1l4.5 4.5c1.8-1 3.4-1.5 4.8-1.5 1.1 0 2.1.4 2.8 1 1.2 1.2 1.4 3.2.4 5.6-.7 1.9-2.1 4-3.9 5.9l2.3 2.3c.2.2.3.4.3.7 0 .3-.1.5-.3.7-.2.2-.4.3-.7.3-.3 0-.5-.1-.7-.3l-2.3-2.3c-3 2.7-6.2 4.4-8.7 4.4zm10.7-16.5c-1.8 0-5 1.4-8.1 4.5-1.9 1.9-3.4 4-4.1 6-.6 1.7-.6 3 0 3.6.3.3.8.5 1.4.5 1.6 0 4.5-1.2 7.4-3.9l-1.7-1.7c-.2-.2-.3-.4-.3-.7 0-.3.1-.5.3-.7.2-.2.4-.3.7-.3.3 0 .5.1.7.3l1.7 1.7c1.6-1.7 2.8-3.6 3.4-5.3.6-1.7.6-3 0-3.6-.3-.2-.7-.4-1.4-.4zm-12 6.2c.7-1.1 1.6-2.1 2.6-3 .9-.9 2-1.8 3-2.6l-5-5c-.8.4-2 1.1-3.3 2.4-1 1-1.8 2.1-2.3 3.2l5 5zm-6.2-20.3c-1.2 0-3.3.8-5.6 3-1.3 1.3-2.3 2.8-2.8 4.1-.4 1.1-.3 2 .1 2.4l7 7 .1-.4c0-.2.1-.3.2-.5.6-1.6 1.7-3.4 3.2-4.9 1.7-1.7 3.7-3 5.6-3.4l.4-.1-6.7-6.7c-.2 0-.3-.1-.4-.2-.3-.2-.7-.3-1.1-.3z"/><path id="XMLID_89_" class="st0" d="M151.8 261.7c.1.1.3.2.5.2s.4-.1.5-.2c.3-.3.3-.8 0-1.1l-2.4-2.4c1.8-1.9 3.2-4 3.9-6 .9-2.4.7-4.3-.4-5.4-.6-.6-1.5-1-2.6-1-1.4 0-3.1.6-4.8 1.5l-4.9-4.9h.5c.4 0 .8.1 1.2.4.1.1.3.2.5.2s.4-.1.5-.2l.1-.1c.1-.1.2-.3.2-.5s-.1-.4-.2-.5l-9.1-9.1c-.1-.1-.3-.2-.4-.2h-.2c-.5-.3-1.1-.5-1.8-.5-2 0-4.6 1.4-6.8 3.5-1.5 1.5-2.6 3.2-3.2 4.8-.6 1.8-.4 3.3.5 4.2l9.1 9.1c.2.1.3.2.6.2s.4-.1.5-.2c.3-.3.3-.8 0-1.1-.4-.4-.5-1-.3-1.9l5 5c-.4.7-.7 1.4-1 2-.9 2.4-.7 4.3.4 5.4.6.6 1.6 1 2.6 1 2.5 0 5.8-1.7 8.8-4.5l2.7 2.3zm-19.7-12l-.2.7-7.2-7.2c-.5-.5-.5-1.4-.1-2.6.5-1.4 1.5-2.9 2.8-4.2 2.3-2.3 4.5-3.1 5.7-3.1.5 0 .9.1 1.2.4.1.1.2.2.3.2h.1l6.9 6.9-.7.2c-1.8.4-3.8 1.7-5.5 3.4-1.5 1.5-2.6 3.2-3.2 4.8 0 .1-.1.3-.1.5zm2-.9c.5-1.1 1.4-2.3 2.4-3.3 1.2-1.2 2.4-2 3.5-2.5l5.2 5.2c-1.1.7-2.2 1.6-3.2 2.7-1 1-1.9 2.1-2.7 3.2l-5.2-5.3zm6.5 13.4c-.7 0-1.2-.2-1.5-.5-.7-.7-.7-2.1 0-3.8.7-2 2.2-4.1 4.1-6 3.2-3.2 6.4-4.6 8.3-4.6.7 0 1.2.2 1.5.5.7.7.7 2.1 0 3.8-.7 1.8-1.9 3.7-3.6 5.5l-1.8-1.8c-.1-.1-.3-.2-.5-.2s-.4.1-.5.2c-.1.1-.2.3-.2.5s.1.4.2.5l1.8 1.8c-3.1 2.9-6.1 4.1-7.8 4.1z"/><path id="XMLID_79_" class="st0" d="M149.9 267.9h-.8c-.3 0-.5-.2-.6-.3-.2-.2-.2-.4-.2-.7.1-.5.5-.9 1-.9h.6c1.8 0 3.6-.8 5.1-2.2 1.3-1.3 2.1-2.9 2.2-4.5 0-.5.5-.9 1-.9.6 0 .9.5.9 1-.2 2.1-1.2 4.1-2.8 5.7-1.8 1.8-4.1 2.8-6.4 2.8z"/><path id="XMLID_98_" class="st0" d="M149.9 267.8c2.3 0 4.6-1 6.3-2.7 1.6-1.6 2.5-3.6 2.7-5.6 0-.4-.3-.8-.7-.8-.5 0-.8.3-.8.7-.1 1.7-1 3.3-2.3 4.7-1.5 1.5-3.4 2.3-5.2 2.3h-.6c-.5 0-.8.3-.8.7 0 .2 0 .4.2.6.1.2.3.3.5.3.2-.3.4-.2.7-.2z"/><path id="XMLID_78_" class="st0" d="M151.3 272.6c-.7 0-1.4-.1-2.1-.2-.5-.1-.9-.6-.8-1.1.1-.5.5-.8.9-.8h.2c.6.1 1.2.2 1.7.2 2.7 0 5.4-1.2 7.4-3.2 2.1-2.1 3.2-4.9 3.2-7.7 0-.5.4-1 1-1 .5 0 .9.4.9.9.1 3.3-1.2 6.6-3.7 9.1-2.4 2.4-5.5 3.8-8.7 3.8z"/><path id="XMLID_99_" class="st0" d="M162.8 259c-.5 0-.8.4-.8.8.1 2.8-1.1 5.7-3.2 7.8-2 2-4.8 3.2-7.5 3.2-.6 0-1.2-.1-1.8-.2h-.1c-.4 0-.7.3-.8.6-.1.4.2.8.6.9.7.1 1.4.2 2.1.2 3.1 0 6.3-1.3 8.6-3.7 2.4-2.4 3.8-5.7 3.7-9-.1-.3-.4-.6-.8-.6z"/><path id="XMLID_83_" class="st0" d="M144.9 239.8c-.3 0-.5-.1-.7-.3l-8.2-8.2c-.2-.2-.3-.4-.3-.7 0-.3.1-.5.3-.7l13.6-13.6c.2-.2.4-.3.7-.3s.5.1.7.3l8.2 8.2c.2.2.3.4.3.7s-.1.5-.3.7l-13.6 13.6c-.2.2-.4.3-.7.3zm0-2.3l12.2-12.2-6.9-6.9-12.2 12.2 6.9 6.9z"/><path id="XMLID_102_" class="st0" d="M144.4 239.4c.1.1.3.2.5.2s.4-.1.5-.2l13.6-13.6c.1-.1.2-.3.2-.5s-.1-.4-.2-.5l-8.2-8.2c-.1-.1-.3-.2-.5-.2s-.4.1-.5.2L136.2 230c-.1.1-.2.3-.2.5s.1.4.2.5l8.2 8.4zm5.9-21.3l7.1 7.1-12.5 12.5-7.1-7.1 12.5-12.5z"/><path id="XMLID_80_" class="st0" d="M116.4 268.3c-.3 0-.5-.1-.7-.3l-8.2-8.2c-.2-.2-.3-.4-.3-.7s.1-.5.3-.7l13.6-13.6c.2-.2.4-.3.7-.3s.5.1.7.3l8.2 8.2c.4.4.4 1 0 1.4L117.1 268c-.2.2-.5.3-.7.3zm0-2.3l12.2-12.2-6.9-6.9-12.2 12.2 6.9 6.9z"/><path id="XMLID_105_" class="st0" d="M122.3 245c-.1-.1-.3-.2-.5-.2s-.4.1-.5.2l-13.6 13.6c-.1.1-.2.3-.2.5s.1.4.2.5l8.2 8.2c.1.1.3.2.5.2s.4-.1.5-.2l13.6-13.6c.3-.3.3-.8 0-1.1l-8.2-8.1zm-5.9 21.3l-7.1-7.1 12.5-12.5 7.1 7.1-12.5 12.5z"/></g><path id="XMLID_375_" class="st0" d="M224.1 161.6l-1.4-1.4 1.4-1.4 1.4 1.4-1.4 1.4zm4.6-2.4h-1.4L225 157v-1.4c0-.5-.4-.9-.9-.9s-.9.4-.9.9v1.4l-2.2 2.2h-1.4c-.5 0-.9.4-.9.9s.4.9.9.9h1.4l2.2 2.2v1.4c0 .5.4.9.9.9s.9-.4.9-.9v-1.4l2.2-2.2h1.4c.5 0 .9-.4.9-.9s-.3-.9-.8-.9z"/><path id="XMLID_374_" class="st0" d="M220.5 164.7c0 1.2-1.8 1.2-1.8 0s1.8-1.2 1.8 0"/><path id="XMLID_484_" class="st0" d="M798.2 427.8c.2-.2.5-.5.7-.8.2.3.4.6.7.8.3.3.6.5.9.7-.3.2-.6.5-.9.7-.2.2-.4.5-.6.7-.2-.3-.4-.5-.6-.7-.3-.3-.6-.5-1-.8.2-.1.5-.4.8-.6zm-3.2 1.6s1.2.5 1.9 1.2c.5.5.9 1.4 1 1.8.1.4.5.6.9.6s.7-.3.9-.6c0 0 .4-1.1 1.1-1.7.6-.6 1.6-1 1.9-1.2.4-.1.6-.5.6-.9s-.3-.7-.6-.8c0 0-1.1-.4-1.8-1.2-.5-.5-1-1.5-1.1-1.8-.1-.4-.5-.6-.9-.6s-.7.2-.9.6c-.1.3-.6 1.3-1.1 1.8-.7.7-1.8 1.2-1.8 1.2-.4.1-.6.5-.6.9-.1.2.2.5.5.7z"/><path id="XMLID_481_" class="st0" d="M814 436.7c-.4.4-.7.9-1 1.3-.3-.4-.6-.9-1-1.3-.5-.5-1-.9-1.6-1.2.5-.3 1-.7 1.4-1.1.4-.4.8-.9 1.1-1.4.3.5.6 1 1.1 1.4.5.5 1 .9 1.5 1.1-.6.3-1.1.7-1.5 1.2zm3.8-2.1s-1.4-.5-2.5-1.6c-.9-.9-1.5-2.4-1.5-2.4-.1-.4-.5-.6-.8-.6-.4 0-.7.2-.9.6-.2.5-.8 1.8-1.5 2.5-1 1-2.5 1.6-2.5 1.6-.4.1-.6.5-.6.9s.2.7.6.9c0 0 1.7.7 2.6 1.6.7.7 1.2 1.9 1.4 2.4.1.4.5.6.9.6s.7-.3.9-.6c0 0 .5-1.4 1.4-2.4.9-.9 2.6-1.6 2.6-1.6.4-.1.6-.5.6-.9-.1-.5-.3-.9-.7-1z"/><path id="XMLID_478_" class="st0" d="M804.8 448.5l-.4.4c-.1-.1-.2-.3-.3-.4-.2-.2-.4-.3-.6-.5.2-.1.3-.3.5-.4.1-.1.3-.3.4-.5.1.2.3.3.4.5l.5.5c-.2.1-.4.2-.5.4zm2.7-1.3s-.8-.3-1.4-.9c-.4-.4-.7-1.1-.8-1.4-.1-.4-.5-.6-.9-.6s-.7.2-.9.6c-.1.3-.5 1-.9 1.4-.6.6-1.4.9-1.4.9-.4.1-.6.5-.6.9s.2.7.6.9c.3.1 1 .5 1.5.9.4.4.7 1.1.8 1.3.1.4.5.6.9.6s.7-.3.9-.6c.1-.2.4-.9.8-1.3s1.2-.8 1.5-.9c.4-.1.6-.5.6-.9-.1-.5-.3-.8-.7-.9z"/><path id="XMLID_591_" class="st0" d="M1042.3 456.9c-.3.2-.7.5-1 .8-.2.2-.4.5-.6.7-.2-.3-.4-.5-.6-.7-.3-.3-.6-.5-.9-.7.3-.2.6-.4.9-.7.3-.2.5-.5.7-.8.2.3.4.6.7.8.2.1.5.4.8.6zm2.9 0c0-.4-.2-.7-.6-.9 0 0-1.1-.4-1.8-1.2-.5-.5-1-1.5-1.1-1.8-.1-.3-.5-.6-.9-.6s-.7.2-.9.6c-.1.3-.5 1.3-1.1 1.8-.8.8-1.8 1.2-1.8 1.2-.4.1-.6.5-.6.8 0 .4.2.7.6.9.3.1 1.4.6 1.9 1.2.7.7 1.1 1.7 1.1 1.7.1.4.5.6.9.6s.7-.2.9-.6c.1-.3.5-1.3 1-1.8.7-.7 1.9-1.2 1.9-1.2.3 0 .5-.3.5-.7z"/><path id="XMLID_495_" class="st0" d="M1024.2 463.9c.5-.3 1-.7 1.5-1.1.4-.4.8-.9 1.1-1.4.3.5.7 1 1.1 1.4.5.4 1 .8 1.4 1.1-.5.3-1.1.7-1.6 1.2-.4.4-.7.8-1 1.3-.3-.4-.6-.9-1-1.3-.5-.5-1-.9-1.5-1.2zm-3 0c0 .4.2.7.6.9 0 0 1.7.7 2.6 1.6.9.9 1.4 2.4 1.4 2.4.1.4.5.6.9.6s.7-.2.9-.6c.2-.4.7-1.7 1.4-2.4 1-1 2.6-1.6 2.6-1.6.4-.1.6-.5.6-.9s-.2-.7-.6-.9c0 0-1.5-.6-2.5-1.6-.7-.7-1.3-2-1.5-2.5-.1-.4-.5-.5-.9-.6-.4 0-.7.2-.8.6 0 0-.6 1.5-1.5 2.4-1.1 1.1-2.5 1.6-2.5 1.6-.4.2-.7.6-.7 1z"/><path id="XMLID_489_" class="st0" d="M1034.3 476.4c.2-.1.4-.3.5-.5.1-.1.3-.3.4-.5.1.2.3.3.4.5.2.2.3.3.5.4-.2.1-.4.3-.6.5-.1.1-.2.3-.3.4-.1-.1-.2-.3-.4-.4-.1-.1-.3-.2-.5-.4zm-2.8 0c0 .4.2.7.6.9.3.1 1.1.5 1.5.9.4.4.7 1.1.8 1.3.1.4.5.6.9.6s.7-.2.9-.6c.1-.2.4-1 .8-1.3.5-.5 1.2-.8 1.5-.9.4-.1.6-.5.6-.9s-.2-.7-.6-.9c0 0-.9-.3-1.4-.9-.4-.4-.8-1.2-.9-1.4-.1-.3-.5-.5-.9-.6-.4 0-.7.3-.9.6-.1.2-.4 1-.8 1.4-.6.6-1.4.9-1.4.9-.4.2-.7.5-.7.9z"/><path id="XMLID_607_" class="st0" d="M1048.3 241.7c.3-.3.5-.6.7-.9.2.3.5.6.8.9.3.3.7.6 1 .8-.4.2-.7.5-1 .8-.3.3-.5.6-.7.8-.2-.3-.4-.6-.7-.8-.3-.3-.7-.6-1.1-.9.3-.1.7-.4 1-.7zm-3.6 1.8s1.4.6 2.2 1.4c.6.6 1 1.6 1.2 2 .2.4.5.7 1 .7.4 0 .8-.3 1-.7 0 0 .4-1.2 1.2-2 .6-.6 1.8-1.2 2.2-1.4.4-.2.7-.6.6-1 0-.4-.3-.8-.7-1 0 0-1.2-.4-2.1-1.3-.6-.6-1.1-1.7-1.2-2-.1-.4-.5-.7-1-.7-.4 0-.8.2-1 .6-.2.4-.7 1.5-1.3 2.1-.8.8-2.1 1.3-2.1 1.3-.4.2-.7.5-.7 1s.3.9.7 1z"/><path id="XMLID_604_" class="st0" d="M1034.8 265c-.5.5-.8 1-1.1 1.5-.3-.5-.7-1-1.1-1.4-.5-.5-1.2-1-1.8-1.4.5-.3 1.1-.8 1.6-1.3.4-.5.9-1 1.2-1.6.3.5.7 1.1 1.2 1.6s1.1 1 1.7 1.3c-.6.3-1.2.8-1.7 1.3zm4.4-2.4s-1.6-.6-2.8-1.8c-1-1-1.7-2.7-1.7-2.8-.1-.4-.5-.7-1-.7-.4 0-.8.2-1 .6-.2.5-.9 2-1.7 2.8-1.1 1.1-2.8 1.8-2.8 1.8-.4.2-.7.5-.7 1 0 .4.3.8.7 1 0 0 1.9.7 3 1.8.8.8 1.4 2.2 1.6 2.7.2.4.5.7 1 .7.4 0 .8-.3 1-.7 0 0 .6-1.6 1.6-2.7 1-1 2.9-1.8 2.9-1.8.4-.2.7-.6.7-1-.1-.3-.4-.7-.8-.9z"/><path id="XMLID_366_" class="st0" d="M727 327l-1.4-1.4 1.4-1.4 1.4 1.4-1.4 1.4zm4.5-2.3h-1.4l-2.2-2.2V321c0-.5-.4-.9-.9-.9s-.9.4-.9.9v1.4l-2.2 2.2h-1.4c-.5 0-.9.4-.9.9s.4.9.9.9h1.4l2.2 2.2v1.4c0 .5.4.9.9.9s.9-.4.9-.9v-1.4l2.2-2.2h1.4c.5 0 .9-.4.9-.9 0-.4-.4-.8-.9-.8z"/><path id="XMLID_31_" class="st0" d="M723.3 330.1c0 1.2-1.8 1.2-1.8 0s1.8-1.2 1.8 0"/><path id="XMLID_603_" class="st0" d="M783 277.6c-.6-.3-.9-1.1-.6-1.7.3-.6 1.1-.8 1.7-.5.7.3.9 1.1.6 1.7-.2.6-1 .8-1.7.5zm2-3.9c-1.6-.8-3.5-.2-4.2 1.3-.8 1.5-.2 3.4 1.4 4.2s3.5.2 4.2-1.3c.8-1.5.2-3.4-1.4-4.2z"/><path id="XMLID_592_" class="st0" d="M839.6 279.7c.3.1.4.4.3.7-.1.2-.5.3-.7.2-.3-.1-.4-.4-.3-.7.1-.3.5-.3.7-.2zm-1.3 2.6c1.2.6 2.6.2 3.2-1s.1-2.6-1.1-3.2-2.6-.2-3.2 1c-.6 1.2-.1 2.6 1.1 3.2z"/><path id="XMLID_499_" class="st0" d="M821.1 252.9c1.2.6 1.7 2 1.1 3.2-.6 1.2-2 1.6-3.2 1-1.2-.6-1.7-2-1.1-3.2.7-1.2 2.1-1.6 3.2-1zm-3 5.8c2.1 1.1 4.7.3 5.7-1.8 1.1-2.1.3-4.6-1.9-5.7-2.1-1.1-4.7-.3-5.7 1.8s-.1 4.6 1.9 5.7z"/><path id="XMLID_471_" class="st0" d="M780.7 230.1l1.2.6-.6 1.2c-.3.5-.1 1 .4 1.3.5.3 1 .1 1.3-.4l.6-1.2 1.2.6c.5.3 1 .1 1.3-.4.3-.5.1-1-.4-1.3l-1.2-.6.6-1.2c.3-.5.1-1-.4-1.3-.5-.3-1-.1-1.3.4l-.6 1.2-1.2-.6c-.5-.3-1-.1-1.3.4-.3.6-.1 1.1.4 1.3z"/><path id="XMLID_470_" class="st0" d="M823.1 302.5l-1.2-.6.6-1.2c.3-.5.1-1-.4-1.3-.5-.3-1-.1-1.3.4l-.6 1.2-1.2-.6c-.5-.3-1-.1-1.3.4-.3.5-.1 1 .4 1.3l1.2.6-.6 1.2c-.3.5-.1 1 .4 1.3s1 .1 1.3-.4l.6-1.2 1.2.6c.5.3 1 .1 1.3-.4.3-.5.1-1.1-.4-1.3z"/><path id="XMLID_469_" class="st0" d="M835.9 257.7c.1.2.3.5.4.5.2.1.5.1.7 0l1.3-.4.5 1.3c.1.2.2.4.4.5.3.1.5.1.7 0 .5-.2.8-.7.6-1.2l-.4-1.3 1.3-.4c.5-.2.8-.7.6-1.2-.2-.5-.7-.8-1.2-.6l-1.3.4-.5-1.3c-.2-.5-.7-.8-1.2-.6-.5.2-.8.7-.6 1.2l.4 1.3-1.3.4c-.2.3-.5.9-.4 1.4z"/><path id="XMLID_468_" class="st0" d="M765.7 271.4c-.2-.5-.7-.8-1.2-.6l-1.3.4-.5-1.3c-.2-.5-.7-.8-1.2-.6-.5.2-.8.7-.6 1.2l.4 1.3-1.3.4c-.5.2-.8.7-.6 1.2.1.2.3.5.4.5.3.1.5.1.7 0l1.3-.4.5 1.3c.1.2.2.4.4.5.3.1.5.1.7 0 .5-.2.8-.7.6-1.2l-.4-1.3 1.3-.4c.7 0 1-.5.8-1z"/><path id="XMLID_467_" class="st0" d="M775.3 283.8c-.6 1.1-2.2.2-1.7-.9.7-1.1 2.3-.2 1.7.9"/><path id="XMLID_466_" class="st0" d="M828.8 278.3c-.6 1.1-2.2.2-1.7-.9.6-1 2.3-.2 1.7.9"/><path id="XMLID_465_" class="st0" d="M805 239.1c-.6 1.1-2.2.2-1.7-.9.6-1 2.3-.2 1.7.9"/><path id="XMLID_464_" class="st0" d="M777.8 271.1c-9.2-8.4-13.3-17.1-10.4-22.6 4.5-8.7 23.9-7.7 43.2 2.3.5.3 1 .1 1.3-.4.3-.5.1-1-.4-1.3-20.6-10.6-40.7-11.3-45.7-1.5-3.3 6.4.7 15.8 10.8 24.8.1 0 .2.1.3.1.3.2.8.1 1.1-.1.3-.4.3-.9-.2-1.3z"/><path id="XMLID_463_" class="st0" d="M838.7 284.3c-.5-.3-1-.1-1.3.4-4.5 8.7-23.9 7.7-43.2-2.3-1.2-.6-2.3-1.2-3.3-1.8-.4-.2-1-.1-1.3.4-.3.5-.1 1 .4 1.3 1.1.7 2.3 1.3 3.4 1.9 20.6 10.6 40.7 11.3 45.7 1.5.3-.7.1-1.2-.4-1.4z"/><path id="XMLID_462_" class="st0" d="M827.1 262c5.1 4.6 8.7 9.3 10.3 13.7.1.2.2.4.4.5.3.1.5.1.7 0 .5-.2.7-.7.5-1.2-1.8-4.6-5.5-9.6-10.8-14.4-.4-.3-1-.3-1.3.1-.3.4-.3 1 .2 1.3z"/><path id="XMLID_461_" class="st0" d="M788 248.6c-6.1 0-10.3 1.9-11.8 5.2-1.5 3.4-.1 7.8 3.9 12.4 4.2 4.8 10.2 9.2 17 12.7 9.1 4.7 19.3 7.7 27.8 7.7.5 0 1-.4.9-.9 0-.5-.4-1-.9-.9-14.4 0-34-8.9-43.4-19.7-3.4-4-4.7-7.7-3.5-10.4 1.2-2.6 4.9-4.2 10.1-4.2 9.1 0 21.5 5.6 27.6 12.5 2.1 2.4 2.9 4.7 2.2 6.3s-2.9 2.5-6.2 2.5c-5.8 0-13.6-3.5-17.4-7.9-.3-.4-.9-.4-1.3-.1-.4.3-.5.9-.1 1.3 4.1 4.7 12.5 8.6 18.7 8.5 4 0 6.8-1.3 7.8-3.6 1.1-2.3.2-5.2-2.5-8.3-6.3-7.3-19.3-13.2-28.9-13.1z"/><path id="XMLID_460_" class="st0" d="M800.6 263.7c-.3.5-.1 1 .4 1.3 2 1 4 1.6 5.5 1.7.5 0 .9-.4 1-.9 0-.5-.4-.9-.9-1-1.2 0-2.9-.6-4.7-1.5-.5-.2-1.1 0-1.3.4z"/><path id="XMLID_459_" class="st0" d="M806 260.4c-.6-.4-1.2-.8-2-1.2-2.2-1.2-4.5-1.8-6.1-1.7-.5 0-.9.5-.8 1 0 .3.2.6.4.8.2.1.3.2.5.1 1.2-.1 3.2.5 5.1 1.5.7.3 1.2.6 1.8 1 .4.3 1 .2 1.3-.3.4-.4.3-1-.2-1.2z"/><g id="XMLID_353_"><path id="XMLID_354_" class="st0" d="M936 127.2c-1.8 7.5 1.4 15.2 7.9 19.3 2.3 1.5 4.8 2.3 7.5 2.7.7.1 1.4.1 2 .1 4.1 0 8.1-1.4 11.3-4h.1c.3.1.5.2.8.3 1.7.6 3.3.9 4.6 1.1.5.1.9.1 1.4.1 1.9 0 3.1-.5 3.8-1.6 1.3-2.1-.2-5.3-4.5-9.7.6-2.7.7-5.5 0-8.1-1.1-4.7-3.9-8.7-7.9-11.2-2.3-1.5-4.8-2.3-7.5-2.7-.7-.1-1.4-.1-2-.1-4.1 0-8.1 1.4-11.3 4-2.8-1-5.1-1.5-6.9-1.5-1.8 0-3.1.5-3.8 1.6-1.6 2.6 1.5 6.7 4.5 9.7zm37.6 16.9c-.1.2-.5.6-2 .6-1.3 0-3-.3-5.1-1 .8-.9 1.5-1.8 2.1-2.7.6-1 1.1-2 1.6-3.1 3.5 3.7 3.8 5.7 3.4 6.2zm-38.3-26c1.3 0 3.1.3 5.1 1-.8.8-1.5 1.8-2.1 2.7-.6 1-1.1 2-1.6 3.1-3.2-3.5-3.9-5.5-3.4-6.3.2-.3 1-.5 2-.5zm4.8 4.9c2.9-4.6 8-7.4 13.4-7.4.6 0 1.2 0 1.8.1 2.4.3 4.6 1.1 6.6 2.3 3.6 2.3 6.1 5.8 7 9.9.9 4.1.2 8.4-2 11.9-.7 1.1-1.6 2.2-2.6 3.1-4.2-1.6-8.9-4-13.7-7-4.8-3-9-6.2-12.2-9.3.4-1.3 1-2.5 1.7-3.6zm-2.3 6c3.2 2.9 7.3 6 11.6 8.7 4.4 2.8 8.9 5.1 12.9 6.7-2.6 1.8-5.8 2.8-8.9 2.8-.6 0-1.2 0-1.8-.1-2.4-.3-4.6-1.1-6.6-2.3-5.3-3.3-8.1-9.6-7.2-15.8z"/></g><path id="XMLID_350_" class="st0" d="M39.3 467.6c.3-.3.5-.6.7-.9.2.3.5.6.8.9.3.3.7.6 1 .8-.4.2-.7.5-1 .8-.3.3-.5.6-.7.8-.2-.3-.4-.6-.7-.8-.3-.3-.7-.6-1.1-.9.3-.1.7-.3 1-.7zm-3.6 1.8s1.4.6 2.2 1.4c.6.6 1 1.6 1.2 2 .2.4.5.7 1 .7.4 0 .8-.3 1-.7 0 0 .4-1.2 1.2-2 .6-.6 1.8-1.2 2.2-1.4.4-.2.7-.6.6-1 0-.4-.3-.8-.7-1 0 0-1.2-.4-2.1-1.3-.6-.6-1.1-1.7-1.2-2-.1-.4-.5-.7-1-.7-.4 0-.8.2-1 .6-.2.4-.7 1.5-1.3 2.1-.8.8-2.1 1.3-2.1 1.3-.4.2-.7.5-.7 1s.3.9.7 1z"/><path id="XMLID_347_" class="st0" d="M25.8 490.9c-.5.5-.8 1-1.1 1.5-.3-.5-.7-1-1.1-1.4-.5-.5-1.2-1-1.8-1.4.5-.3 1.1-.8 1.6-1.3.4-.5.9-1 1.2-1.6.3.5.7 1.1 1.2 1.6s1.1 1 1.7 1.3c-.6.3-1.2.8-1.7 1.3zm4.4-2.3s-1.6-.6-2.8-1.8c-1-1-1.7-2.7-1.7-2.8-.1-.4-.5-.7-1-.7-.4 0-.8.2-1 .6-.2.5-.9 2-1.7 2.8-1.1 1.1-2.8 1.8-2.8 1.8-.4.2-.7.5-.7 1 0 .4.3.8.7 1 0 0 1.9.7 3 1.8.8.8 1.4 2.2 1.6 2.7.2.4.5.7 1 .7.4 0 .8-.3 1-.7 0 0 .6-1.6 1.6-2.7 1-1 2.9-1.8 2.9-1.8.4-.2.7-.6.7-1-.1-.4-.4-.8-.8-.9z"/><path id="XMLID_344_" class="st0" d="M727.8 137.6c.2-.2.5-.5.7-.8.2.3.4.6.7.8.3.3.6.5.9.7-.3.2-.6.5-.9.7-.2.2-.4.5-.6.7-.2-.3-.4-.5-.6-.7-.3-.3-.6-.5-1-.8.3-.1.6-.4.8-.6zm-3.1 1.6s1.2.5 2 1.2c.5.5.9 1.4 1 1.8.1.4.5.6.9.6s.7-.3.9-.6c0 0 .4-1.1 1.1-1.8.6-.6 1.6-1.1 1.9-1.2.4-.1.6-.5.6-.9s-.3-.7-.6-.9c0 0-1.1-.4-1.9-1.2-.5-.5-1-1.5-1.1-1.8-.1-.4-.5-.6-.9-.6s-.7.2-.9.6c-.1.3-.6 1.3-1.1 1.8-.7.7-1.8 1.2-1.9 1.2-.4.1-.6.5-.6.9s.2.7.6.9z"/><path id="XMLID_341_" class="st0" d="M794.7 114.2c-.4.4-.7.9-1 1.3-.3-.4-.6-.9-1-1.3-.5-.5-1-.9-1.6-1.2.5-.3 1-.7 1.4-1.1.4-.4.8-.9 1.1-1.4.3.5.6 1 1.1 1.4.5.5 1 .9 1.5 1.2-.5.3-1 .6-1.5 1.1zm3.9-2.1s-1.4-.5-2.5-1.6c-.9-.9-1.5-2.4-1.5-2.4-.1-.4-.5-.6-.8-.6-.4 0-.7.2-.9.6-.2.5-.8 1.8-1.5 2.5-1 1-2.5 1.6-2.5 1.6-.4.1-.6.5-.6.9s.2.7.6.9c0 0 1.7.7 2.6 1.6.7.7 1.2 2 1.4 2.4.1.4.5.6.9.6s.7-.3.9-.6c0 0 .5-1.4 1.4-2.4.9-.9 2.6-1.6 2.6-1.6.4-.1.6-.5.6-.9-.1-.5-.4-.8-.7-1z"/><path id="XMLID_338_" class="st0" d="M759.7 156.8l-.4.4c-.1-.1-.2-.3-.3-.4-.2-.2-.4-.3-.6-.5.2-.1.3-.3.5-.4.1-.1.3-.3.4-.5.1.2.3.3.4.5l.5.5c-.1.1-.3.3-.5.4zm2.8-1.3s-.8-.3-1.4-.9c-.4-.4-.7-1.1-.8-1.4-.1-.4-.5-.6-.9-.6s-.7.2-.9.6c-.1.3-.5 1-.9 1.4-.6.6-1.4.9-1.4.9-.4.1-.6.5-.6.9s.2.7.6.9c.3.1 1 .5 1.5.9.4.4.7 1.1.8 1.3.1.4.5.6.9.6s.7-.3.9-.6c.1-.2.4-.9.8-1.3s1.2-.8 1.5-.9c.4-.1.6-.5.6-.9-.1-.4-.4-.8-.7-.9z"/><path id="XMLID_335_" class="st0" d="M3.8 108.9c.2-.2.5-.5.7-.8.2.3.4.6.7.8.3.3.6.5.9.7-.3.2-.6.5-.9.7-.2.2-.4.5-.6.7-.2-.3-.4-.5-.6-.7-.3-.3-.6-.5-1-.8.2-.1.5-.4.8-.6zm-3.2 1.5s1.2.5 1.9 1.2c.5.5.9 1.4 1 1.8.1.4.5.6.9.6s.7-.3.9-.6c0 0 .4-1.1 1.1-1.7.6-.6 1.6-1 1.9-1.2.4-.1.6-.5.6-.9s-.3-.7-.6-.8c0 0-1.1-.4-1.8-1.2-.5-.5-1-1.5-1.1-1.8-.1-.4-.5-.6-.9-.6s-.7.2-.9.6c-.2.2-.6 1.2-1.2 1.7-.7.7-1.8 1.2-1.8 1.2-.4.1-.6.5-.6.9s.2.7.6.8z"/><path id="XMLID_332_" class="st0" d="M19.5 117.8c-.4.4-.7.9-1 1.3-.3-.4-.6-.9-1-1.3-.5-.5-1-.9-1.6-1.2.5-.3 1-.7 1.4-1.1.4-.4.8-.9 1.1-1.4.3.5.6 1 1.1 1.4.5.5 1 .9 1.5 1.1-.5.3-1 .7-1.5 1.2zm3.9-2.1s-1.4-.5-2.5-1.6c-.9-.9-1.5-2.4-1.5-2.4-.1-.4-.5-.6-.8-.6-.4 0-.7.2-.9.6-.2.5-.8 1.8-1.5 2.5-1 1-2.5 1.6-2.5 1.6-.4.1-.6.5-.6.9s.2.7.6.9c0 0 1.7.7 2.6 1.6.7.7 1.2 1.9 1.4 2.4.1.4.5.6.9.6s.7-.3.9-.6c0 0 .5-1.4 1.4-2.4.9-.9 2.6-1.6 2.6-1.6.4-.1.6-.5.6-.9-.1-.5-.4-.9-.7-1z"/><path id="XMLID_329_" class="st0" d="M10.3 129.6l-.4.4c-.1-.1-.2-.3-.3-.4-.2-.2-.4-.3-.6-.5.2-.1.3-.3.5-.4.1-.1.3-.3.4-.5.1.2.3.3.4.5l.5.5c-.1.1-.3.2-.5.4zm2.8-1.4s-.8-.3-1.4-.9c-.4-.4-.7-1.1-.8-1.4-.1-.4-.5-.6-.9-.6s-.7.2-.9.6c-.1.3-.5 1-.9 1.4-.6.6-1.4.9-1.4.9-.4.1-.6.5-.6.9s.2.7.6.9c.3.1 1 .5 1.5.9.4.4.7 1.1.8 1.3.1.4.5.6.9.6s.7-.3.9-.6c.1-.2.4-.9.8-1.3s1.2-.8 1.5-.9c.4-.1.6-.5.6-.9-.1-.4-.4-.7-.7-.9z"/><path id="XMLID_326_" class="st0" d="M903.2 118.4c-.4 0-.7.1-1.1.1.1-.4.1-.7.1-1.1 0-.4 0-.8-.1-1.2.4.1.8.1 1.2.1.4 0 .7 0 1-.1-.1.3-.1.7-.1 1 0 .4.1.9.1 1.3-.3 0-.7-.1-1.1-.1zm3.6 1.2s-.6-1.3-.6-2.4c0-.7.4-1.8.6-2.1.2-.4.1-.8-.2-1.1-.3-.3-.8-.4-1.1-.2 0 0-1.1.5-2.1.5-.9 0-2-.4-2.4-.6-.4-.2-.8-.1-1.1.2-.3.3-.4.8-.2 1.1 0 0 .5 1.1.5 2.3 0 .8-.4 1.9-.5 2.2-.2.4-.1.8.2 1.1.3.3.7.4 1.1.2.4-.1 1.5-.5 2.3-.5 1.1 0 2.3.5 2.3.5.4.2.8.1 1.1-.2.2-.2.3-.6.1-1z"/><path id="XMLID_323_" class="st0" d="M898 99.7c.6 0 1.2-.1 1.7-.2-.1.5-.2 1.1-.2 1.7 0 .7.1 1.4.3 2.1-.6-.1-1.3-.2-1.9-.2-.6 0-1.3.1-1.9.2.1-.6.2-1.2.2-1.9s-.1-1.4-.2-2c.6.2 1.3.3 2 .3zm-4.5-1.4s.7 1.5.7 3.1c0 1.4-.7 3-.7 3-.2.4-.1.8.2 1.1.3.3.7.4 1.1.2.5-.2 2-.7 3-.7 1.5 0 3.1.7 3.1.7.4.2.8.1 1.1-.2.3-.3.4-.7.2-1.1 0 0-.8-1.7-.8-3.2 0-1 .5-2.4.8-2.9.2-.4.1-.8-.2-1.1-.3-.3-.8-.4-1.1-.2 0 0-1.5.7-2.9.7s-3.2-.7-3.2-.7c-.4-.2-.8-.1-1.1.2-.3.3-.4.7-.2 1.1z"/><path id="XMLID_320_" class="st0" d="M914 97.7h.6v.6c0 .3 0 .5.1.8-.2 0-.5-.1-.7-.1-.2 0-.4 0-.7.1 0-.2 0-.4.1-.7 0-.3 0-.5-.1-.7.2-.1.4 0 .7 0zm-3.1-1.1s.4.8.4 1.7c0 .6-.3 1.4-.4 1.7-.2.4-.1.8.2 1.1.3.3.7.4 1.1.2.3-.1 1.1-.4 1.7-.4.9 0 1.7.4 1.7.4.4.2.8.1 1.1-.2.3-.3.4-.7.2-1.1-.1-.3-.4-1.1-.4-1.8 0-.6.3-1.4.4-1.6.2-.4.1-.8-.2-1.1-.3-.3-.8-.4-1.1-.2-.2.1-1 .4-1.6.4-.6 0-1.5-.3-1.8-.4-.4-.2-.8-.1-1.1.2-.4.3-.4.7-.2 1.1z"/><path id="XMLID_317_" class="st0" d="M139.6 293c-.3.2-.7.5-1 .8-.2.2-.4.5-.6.7-.2-.3-.4-.5-.6-.8-.3-.3-.6-.5-.9-.7.3-.2.6-.5.9-.7.3-.3.5-.5.7-.8.2.3.4.6.7.8.2.2.5.5.8.7zm2.9 0c0-.4-.2-.7-.6-.9 0 0-1.1-.4-1.9-1.2-.5-.5-1-1.5-1.1-1.9-.2-.4-.5-.6-.9-.6s-.7.3-.9.6c-.1.3-.5 1.3-1.1 1.8-.8.8-1.9 1.2-1.9 1.2-.4.1-.6.5-.6.9s.2.8.6.9c.4.1 1.4.6 1.9 1.2.7.7 1.1 1.8 1.1 1.8.1.4.5.6.9.6s.7-.2.9-.6c.1-.3.5-1.3 1-1.8.7-.7 2-1.2 2-1.2.4-.1.6-.4.6-.8z"/><path id="XMLID_314_" class="st0" d="M121.2 300.1c.5-.3 1-.7 1.5-1.2.4-.4.8-.9 1.1-1.4.3.5.7 1 1.1 1.4.5.5 1 .8 1.5 1.1-.5.3-1.1.7-1.6 1.2-.4.4-.7.8-1 1.3-.3-.4-.6-.9-1-1.3-.6-.4-1.1-.8-1.6-1.1zm-3.1 0c0 .4.2.8.6.9 0 0 1.7.7 2.6 1.6 1 1 1.5 2.4 1.5 2.4.1.4.5.6.9.6s.7-.2.9-.6c.2-.4.7-1.7 1.4-2.4 1-1 2.6-1.6 2.7-1.7.4-.1.6-.5.6-.9s-.2-.7-.6-.9c0 0-1.5-.6-2.5-1.6-.7-.7-1.4-2.1-1.6-2.5-.1-.4-.5-.6-.9-.6s-.7.2-.9.6c0 0-.6 1.6-1.5 2.5-1.1 1.1-2.5 1.6-2.5 1.6-.4.2-.6.6-.7 1z"/><path id="XMLID_311_" class="st0" d="M158.2 305.1c.2-.1.4-.3.5-.5.1-.1.3-.3.4-.5.1.2.3.3.4.5.2.2.3.3.5.4-.2.1-.4.3-.6.5-.1.1-.2.3-.3.4-.1-.1-.2-.3-.4-.4-.1-.1-.3-.2-.5-.4zm-2.8 0c0 .4.2.8.6.9.3.1 1.1.5 1.5.9.4.4.7 1.1.8 1.3.1.4.5.6.9.6s.7-.2.9-.6c.1-.2.4-1 .8-1.4.5-.5 1.2-.8 1.5-.9.4-.1.6-.5.6-.9s-.2-.7-.6-.9c0 0-.9-.3-1.4-.9-.4-.4-.8-1.2-.9-1.4-.1-.4-.5-.5-.9-.6-.4 0-.7.3-.9.6-.1.2-.4 1-.8 1.4-.6.6-1.4.9-1.4.9-.5.2-.7.6-.7 1z"/><path id="XMLID_308_" class="st0" d="M183.9 243.6l.6-.6c.2-.2.3-.4.5-.6.1.2.3.4.5.6.2.2.4.4.6.5-.2.2-.5.4-.7.6-.1.2-.3.3-.4.5-.1-.2-.3-.4-.4-.5-.2-.1-.5-.3-.7-.5zm-3.5 0c0 .5.3.9.7 1.1.3.1 1.3.6 1.8 1.1.5.5.9 1.4 1 1.6.2.5.6.8 1.1.8.5 0 .9-.3 1.1-.7.1-.3.5-1.2 1-1.7.6-.6 1.5-1 1.8-1.1.4-.2.7-.6.7-1.1 0-.5-.3-.9-.7-1.1 0 0-1-.4-1.7-1.1-.5-.5-.9-1.4-1.1-1.7-.2-.4-.6-.7-1.1-.7-.5 0-.9.3-1 .7-.1.3-.5 1.2-1 1.7-.7.7-1.7 1.1-1.7 1.1-.5.2-.9.6-.9 1.1z"/><path id="XMLID_305_" class="st0" d="M912.8 397.6c.4-.4.8-.9 1.1-1.4.3.5.6 1 1 1.3.5.5 1.1.9 1.7 1.3-.5.3-1 .7-1.5 1.2-.4.4-.8 1-1.1 1.5-.3-.5-.7-1-1.1-1.5-.5-.5-1.1-.9-1.6-1.2.5-.3 1.1-.7 1.5-1.2zm-4.1 2.2s1.5.5 2.7 1.7c1 1 1.6 2.6 1.6 2.6.1.4.5.6.9.6s.8-.2.9-.6c.2-.5.9-1.9 1.6-2.6 1.1-1.1 2.6-1.7 2.7-1.7.4-.1.6-.5.6-.9s-.2-.8-.6-.9c0 0-1.8-.7-2.8-1.7-.7-.7-1.3-2.1-1.5-2.5-.1-.4-.5-.6-.9-.6s-.8.3-.9.7c0 0-.5 1.5-1.5 2.5s-2.7 1.7-2.8 1.7c-.4.2-.6.5-.6.9 0 .3.2.7.6.8z"/><path id="XMLID_302_" class="st0" d="M922.6 385l.4-.4c.1.1.2.3.4.4.2.2.4.4.6.5-.2.1-.4.3-.5.5-.1.1-.3.3-.4.5-.1-.2-.3-.3-.4-.5-.2-.2-.4-.3-.6-.5l.5-.5zm-2.9 1.5s.9.3 1.5.9c.4.4.8 1.2.9 1.5.1.4.5.6.9.6s.8-.2.9-.6c.1-.3.5-1.1.9-1.5.6-.6 1.5-.9 1.5-.9.4-.1.6-.5.6-.9s-.2-.8-.6-.9c-.3-.1-1.1-.5-1.6-1-.4-.4-.7-1.2-.8-1.4-.1-.4-.5-.6-.9-.6s-.8.3-.9.7c-.1.2-.4.9-.9 1.4-.5.5-1.3.9-1.6 1-.4.2-.6.5-.6.9 0 .3.3.6.7.8z"/><path id="XMLID_299_" class="st0" d="M984.9 160.2c-.4 0-.8.1-1.1.1.1-.4.1-.8.1-1.1 0-.4 0-.9-.1-1.3.4.1.8.1 1.3.1.4 0 .7 0 1.1-.1-.1.3-.1.7-.1 1 0 .4.1.9.2 1.3-.6.1-1 0-1.4 0zm3.6 1.2s-.6-1.3-.6-2.4c0-.8.4-1.8.6-2.2.2-.4.1-.8-.2-1.1-.3-.3-.8-.4-1.2-.2 0 0-1.1.5-2.2.5-.9 0-2-.4-2.4-.6-.4-.2-.8-.1-1.1.2-.3.3-.4.8-.2 1.1 0 0 .5 1.1.5 2.3 0 .8-.4 1.9-.6 2.2-.2.4-.1.8.2 1.1.3.3.7.4 1.1.2.4-.2 1.5-.5 2.3-.5 1.2 0 2.3.5 2.3.5.4.2.8.1 1.1-.2.5 0 .6-.5.4-.9z"/><path id="XMLID_296_" class="st0" d="M71.1 162.1c.3-.3.5-.6.7-.9.2.3.5.6.8.9.3.3.7.6 1 .8-.4.2-.7.5-1 .8-.3.3-.5.6-.7.8-.2-.3-.4-.6-.7-.8-.3-.3-.7-.6-1.1-.9.4-.2.7-.4 1-.7zm-3.5 1.8s1.4.6 2.2 1.4c.6.6 1 1.6 1.2 2 .2.4.5.7 1 .7.4 0 .8-.3 1-.7 0 0 .4-1.2 1.2-2 .6-.6 1.8-1.2 2.2-1.4.4-.2.7-.6.6-1 0-.4-.3-.8-.7-1 0 0-1.2-.4-2.1-1.3-.6-.6-1.1-1.7-1.2-2-.1-.4-.5-.7-1-.7-.4 0-.8.2-1 .6-.2.4-.7 1.5-1.3 2.1-.8.8-2.1 1.3-2.1 1.3-.4.2-.7.5-.7 1 0 .4.2.8.7 1z"/><path id="XMLID_293_" class="st0" d="M317.2 230.8c.3-.3.5-.6.7-.9.2.3.5.6.8.9.3.3.7.6 1 .8-.4.2-.7.5-1 .8-.3.3-.5.6-.7.8-.2-.3-.4-.6-.7-.8-.3-.3-.7-.6-1.1-.9.4-.1.7-.4 1-.7zm-3.6 1.8s1.4.6 2.2 1.4c.6.6 1 1.6 1.2 2 .2.4.5.7 1 .7.4 0 .8-.3 1-.7 0 0 .4-1.2 1.2-2 .6-.6 1.8-1.2 2.2-1.4.4-.2.7-.6.6-1 0-.4-.3-.8-.7-1 0 0-1.2-.4-2.1-1.3-.6-.6-1.1-1.7-1.2-2-.1-.4-.5-.7-1-.7-.4 0-.8.2-1 .6-.2.4-.7 1.5-1.3 2.1-.8.8-2.1 1.3-2.1 1.3-.4.2-.7.5-.7 1 .1.5.3.9.7 1z"/><path id="XMLID_290_" class="st0" d="M18.9 332.2c.3-.3.5-.6.7-.9.2.3.5.6.8.9.3.3.7.6 1 .8-.4.2-.7.5-1 .8-.3.3-.5.6-.7.8-.2-.3-.4-.6-.7-.8-.3-.3-.7-.6-1.1-.9.3-.1.7-.4 1-.7zm-3.6 1.8s1.4.6 2.2 1.4c.6.6 1 1.6 1.2 2 .2.4.5.7 1 .7.4 0 .8-.3 1-.7 0 0 .4-1.2 1.2-2 .6-.6 1.8-1.2 2.2-1.4.4-.2.7-.6.6-1 0-.4-.3-.8-.7-1 0 0-1.2-.4-2.1-1.3-.6-.6-1.1-1.7-1.2-2-.1-.4-.5-.7-1-.7-.4 0-.8.2-1 .6-.2.4-.7 1.5-1.3 2.1-.8.8-2.1 1.3-2.1 1.3-.4.2-.7.5-.7 1s.3.9.7 1z"/><path id="XMLID_287_" class="st0" d="M211.4 406.7c-12.3 0-22.4-10-22.4-22.4 0-10.3 7.1-19.1 16.7-21.6-4.3 4.6-6.7 10.7-6.7 17.1 0 12.7 9.5 23.3 21.8 24.9-2.9 1.3-6.1 2-9.4 2zm14-4.6h-1.3c-12.3 0-22.4-10-22.4-22.4 0-7.2 3.3-13.7 9.1-18 .5-.4.7-1 .5-1.5-.2-.6-.8-.9-1.3-.9-13.2.8-23.6 11.7-23.6 25 0 13.8 11.2 25.1 25.1 25.1 5.4 0 10.5-1.7 14.8-4.9.5-.4.7-1 .5-1.5-.3-.6-.9-1-1.4-.9z"/><path id="XMLID_284_" class="st0" d="M225.5 348.1c.3-.3.5-.5.7-.8.2.3.4.6.7.8.3.3.6.6.9.8-.3.2-.7.5-.9.8-.2.2-.5.5-.6.8-.2-.3-.4-.5-.6-.8-.3-.3-.7-.6-1-.8.2-.3.5-.5.8-.8zm-3.3 1.6s1.3.5 2 1.2c.5.5.9 1.5 1.1 1.8.1.4.5.6.9.6s.8-.3.9-.7c0 0 .4-1.1 1.1-1.8.6-.6 1.6-1.1 2-1.2.4-.2.6-.5.6-.9s-.3-.8-.7-.9c0 0-1.1-.4-1.9-1.2-.6-.6-1-1.5-1.1-1.9-.1-.4-.5-.6-.9-.6s-.8.2-.9.6c-.1.4-.7 1.4-1.2 1.9-.8.8-1.9 1.2-1.9 1.2-.4.1-.6.5-.6.9-.1.5.2.9.6 1z"/><path id="XMLID_281_" class="st0" d="M241.8 357.3c-.4.4-.8.9-1 1.3-.3-.5-.6-.9-1-1.3-.5-.5-1.1-.9-1.6-1.2.5-.3 1-.7 1.5-1.2.4-.4.8-.9 1.1-1.4.3.5.7 1 1.1 1.4.5.5 1 .9 1.5 1.2-.5.4-1.1.8-1.6 1.2zm4-2.1s-1.5-.5-2.6-1.6c-.9-.9-1.5-2.5-1.5-2.5-.1-.4-.5-.6-.9-.6s-.8.2-.9.6c-.2.5-.9 1.8-1.6 2.6-1 1-2.6 1.6-2.6 1.6-.4.1-.6.5-.6.9s.2.8.6.9c0 0 1.7.7 2.7 1.7.7.7 1.3 2 1.5 2.5.1.4.5.6.9.6s.8-.3.9-.7c0 0 .5-1.5 1.5-2.5s2.7-1.7 2.7-1.7c.4-.2.6-.5.6-.9s-.3-.7-.7-.9z"/><path id="XMLID_278_" class="st0" d="M232.3 369.6l-.4.4c-.1-.1-.2-.3-.4-.4-.2-.2-.4-.4-.6-.5.2-.1.4-.3.5-.5.1-.1.3-.3.4-.5.1.2.3.3.4.5.2.2.4.3.5.5 0 .2-.2.4-.4.5zm2.8-1.4s-.8-.3-1.5-.9c-.4-.4-.8-1.2-.9-1.4-.1-.4-.5-.6-.9-.6s-.8.2-.9.6c-.1.3-.5 1.1-.9 1.5-.6.6-1.5.9-1.5.9-.4.1-.6.5-.6.9s.2.8.6.9c.3.1 1.1.5 1.6 1 .4.4.7 1.2.8 1.4.1.4.5.6.9.6s.8-.3.9-.7c.1-.2.4-.9.8-1.4.4-.4 1.3-.8 1.5-.9.4-.2.6-.5.6-.9.2-.5-.1-.8-.5-1z"/><path id="XMLID_275_" class="st0" d="M266.3 409.4l-1.7-1.7 1.7-1.7 1.7 1.7-1.7 1.7zm5.4-2.8H270l-2.6-2.6v-1.7c0-.6-.5-1.1-1.1-1.1-.6 0-1.1.5-1.1 1.1v1.7l-2.6 2.6h-1.7c-.6 0-1.1.5-1.1 1.1s.5 1.1 1.1 1.1h1.7l2.6 2.6v1.7c0 .6.5 1.1 1.1 1.1.6 0 1.1-.5 1.1-1.1v-1.7l2.6-2.6h1.7c.6 0 1.1-.5 1.1-1.1s-.5-1.1-1.1-1.1z"/><path id="XMLID_274_" class="st0" d="M262 413.1c0 1.4-2.2 1.4-2.2 0s2.2-1.4 2.2 0"/><path id="XMLID_264_" class="st0" d="M731.4 108.4c-1.5 0-2.9-.7-3.8-1.8-1.7-2.1-1.4-5.2.7-7l.4-.3-5.6-10.3h-.5c-1.1 0-2.1-.5-2.8-1.4-.3-.4-.5-.8-.5-.9l.1-.4h-.4l-14.2-3-.1.2c-.2.4-.7.9-1.1 1.3-.9.7-2 1.1-3.1 1.1-1.5 0-2.9-.7-3.8-1.8-.7-.9-1.1-2.2-1.1-3.6v-.3l-10.4-3.5-.2.3c-.2.3-.6.8-1 1.2-.8.6-1.8 1-2.8 1-1.4 0-2.7-.6-3.5-1.6l-.5-.6-16.5 5.7v.3c.2 2.1-.6 4.1-2.2 5.4-1.1.9-2.5 1.4-4 1.4-1.9 0-3.7-.9-4.9-2.3-1.1-1.3-1.6-3-1.4-4.6.2-1.7 1-3.2 2.3-4.2 1.1-.9 2.5-1.4 4-1.4 1.9 0 3.7.8 4.9 2.3.1.1.1.2.2.3.1.2.2.3.3.5l.2.2 16.4-5.6v-.3c.1-1.1.5-2.6 1.7-3.6.8-.6 1.8-1 2.8-1 1.4 0 2.7.6 3.5 1.6.6.8 1 1.7 1 2.5v.3l10.8 3.6.2-.3c.2-.3.5-.6.9-.9.9-.7 2-1.1 3.1-1.1 1.5 0 2.9.7 3.8 1.8.7.8 1.1 1.9 1.1 3v.3l14 3 .3-.5c.3-.4.5-.7.8-.9.7-.5 1.4-.8 2.3-.8 1.1 0 2.1.5 2.8 1.3l.3.3 30.8-7.9v-.3c.2-1.6.9-2.9 2.2-3.9 1.1-.9 2.4-1.4 3.8-1.4 1.8 0 3.6.8 4.8 2.3 1.1 1.3 1.6 3 1.4 4.6-.2 1.7-1 3.2-2.3 4.2-.5.4-1.1.7-1.6.9l-.2.1.3 11.1.3.1c1.1.4 2 .9 2.6 1.6.8 1 1.2 2.3 1.1 3.6s-.8 2.5-1.8 3.3c-.9.7-2 1.1-3.1 1.1-1.5 0-2.9-.7-3.8-1.8 0 0 0-.1-.1-.1-.1-.2-.2-.4-.3-.5l-.1-.2-23.5 4.1-.1.2c-.4 1.1-.9 2-1.6 2.6-1.1 1-2.2 1.4-3.3 1.4zm.1-7.6c-.6 0-1.3.2-1.8.6-1.2 1-1.4 2.7-.4 3.9.5.7 1.3 1 2.2 1 .6 0 1.3-.2 1.8-.6.6-.5 1.1-1.3 1.1-2.1 0-.7-.2-1.4-.7-1.8-.6-.7-1.4-1-2.2-1zm.2-2.4c1.4 0 2.7.7 3.7 1.9.4.5.8 1.2.9 1.7l.1.4 23-3.9v-.3c.1-1.5.7-2.9 1.9-3.8.5-.4 1.2-.8 1.7-.9l.3-.1-.3-11.2h-.4c-1.8-.1-3.4-.9-4.5-2.3-.5-.7-1-1.4-1.2-2.1l-.1-.4-30.3 7.8v.3c0 .7-.3 1.4-1 2.2l-.2.2 5.5 10.5h.9zm32.7-3c-.6 0-1.3.2-1.8.6-.6.5-1 1.1-1 1.9-.1.7.1 1.5.6 2 .5.7 1.3 1 2.1 1 .6 0 1.3-.2 1.8-.6.6-.5 1-1.3 1-2.1 0-.7-.2-1.4-.7-1.8-.4-.6-1.1-1-2-1zM654.3 79.2c-1 0-1.9.3-2.6.9-.9.7-1.4 1.7-1.5 2.8-.1 1.1.2 2.2.9 3 .8 1 2 1.5 3.2 1.5 1 0 1.9-.3 2.6-.9.9-.7 1.4-1.7 1.5-2.8.1-1.1-.2-2.2-.9-3-.8-1-2-1.5-3.2-1.5zm68.5 4.7c-.3 0-.6.1-.9.3-.3.2-.5.6-.5 1s.1.8.3 1.1c.3.3.7.5 1.1.5.3 0 .6-.1.9-.3.3-.2.5-.6.5-1s-.1-.8-.3-1.1c-.3-.3-.7-.5-1.1-.5zM700.3 78c-.6 0-1.3.2-1.8.6-1.2 1-1.4 2.7-.4 3.9.5.7 1.3 1 2.1 1 .6 0 1.3-.2 1.8-.6.6-.5 1-1.1 1-1.9.1-.7-.1-1.5-.6-2-.5-.6-1.3-1-2.1-1zm62.7-6c-1 0-1.9.3-2.6.9-.9.7-1.4 1.7-1.5 2.8-.1 1.1.2 2.2.9 3 .8 1 2 1.5 3.2 1.5 1 0 1.9-.3 2.6-.9 1.7-1.4 2-4.1.6-5.8-.8-.9-2-1.5-3.2-1.5zm-82.2 0c-.5 0-1.1.2-1.5.5-.5.4-.8.9-.8 1.6-.1.6.1 1.2.5 1.7s1.1.8 1.8.8c.5 0 1.1-.2 1.5-.5.5-.4.8-1 .8-1.6.1-.6-.1-1.2-.5-1.7s-1.1-.8-1.8-.8z"/><g id="XMLID_237_"><path id="XMLID_259_" class="st0" d="M140.6 265c-1.1 0-2.1-.4-2.8-1-1.2-1.2-1.4-3.2-.4-5.6.2-.6.5-1.2.9-1.9l-4.6-4.6c-.1.6 0 1.1.3 1.3.4.4.4 1 0 1.4-.2.2-.4.3-.7.3-.3 0-.5-.1-.7-.3l-9.1-9.1c-1-1-1.2-2.5-.5-4.4.6-1.6 1.7-3.4 3.2-4.9 2.2-2.2 4.9-3.6 6.9-3.6.7 0 1.4.2 1.9.5.3.1.5.2.6.3l9.1 9.1c.2.2.3.4.3.7 0 .3-.1.5-.3.7l-.1.1c-.2.2-.4.3-.7.3-.3 0-.5-.1-.7-.3-.3-.3-.7-.3-1-.3h-.1l4.5 4.5c1.8-1 3.4-1.5 4.8-1.5 1.1 0 2.1.4 2.8 1 1.2 1.2 1.4 3.2.4 5.6-.7 1.9-2.1 4-3.9 5.9l2.3 2.3c.2.2.3.4.3.7 0 .3-.1.5-.3.7-.2.2-.4.3-.7.3-.3 0-.5-.1-.7-.3l-2.3-2.3c-3 2.7-6.2 4.4-8.7 4.4zm10.7-16.5c-1.8 0-5 1.4-8.1 4.5-1.9 1.9-3.4 4-4.1 6-.6 1.7-.6 3 0 3.6.3.3.8.5 1.4.5 1.6 0 4.5-1.2 7.4-3.9l-1.7-1.7c-.2-.2-.3-.4-.3-.7 0-.3.1-.5.3-.7.2-.2.4-.3.7-.3.3 0 .5.1.7.3l1.7 1.7c1.6-1.7 2.8-3.6 3.4-5.3.6-1.7.6-3 0-3.6-.3-.2-.7-.4-1.4-.4zm-12 6.2c.7-1.1 1.6-2.1 2.6-3 .9-.9 2-1.8 3-2.6l-5-5c-.8.4-2 1.1-3.3 2.4-1 1-1.8 2.1-2.3 3.2l5 5zm-6.2-20.3c-1.2 0-3.3.8-5.6 3-1.3 1.3-2.3 2.8-2.8 4.1-.4 1.1-.3 2 .1 2.4l7 7 .1-.4c0-.2.1-.3.2-.5.6-1.6 1.7-3.4 3.2-4.9 1.7-1.7 3.7-3 5.6-3.4l.4-.1-6.7-6.7c-.2 0-.3-.1-.4-.2-.3-.2-.7-.3-1.1-.3z"/><path id="XMLID_254_" class="st0" d="M151.8 262.7c.1.1.3.2.5.2s.4-.1.5-.2c.3-.3.3-.8 0-1.1l-2.4-2.4c1.8-1.9 3.2-4 3.9-6 .9-2.4.7-4.3-.4-5.4-.6-.6-1.5-1-2.6-1-1.4 0-3.1.6-4.8 1.5l-4.9-4.9h.5c.4 0 .8.1 1.2.4.1.1.3.2.5.2s.4-.1.5-.2l.1-.1c.1-.1.2-.3.2-.5s-.1-.4-.2-.5l-9.1-9.1c-.1-.1-.3-.2-.4-.2h-.2c-.5-.3-1.1-.5-1.8-.5-2 0-4.6 1.4-6.8 3.5-1.5 1.5-2.6 3.2-3.2 4.8-.6 1.8-.4 3.3.5 4.2l9.1 9.1c.2.1.3.2.6.2s.4-.1.5-.2c.3-.3.3-.8 0-1.1-.4-.4-.5-1-.3-1.9l5 5c-.4.7-.7 1.4-1 2-.9 2.4-.7 4.3.4 5.4.6.6 1.6 1 2.6 1 2.5 0 5.8-1.7 8.8-4.5l2.7 2.3zm-19.7-12l-.2.7-7.2-7.2c-.5-.5-.5-1.4-.1-2.6.5-1.4 1.5-2.9 2.8-4.2 2.3-2.3 4.5-3.1 5.7-3.1.5 0 .9.1 1.2.4.1.1.2.2.3.2h.1l6.9 6.9-.7.2c-1.8.4-3.8 1.7-5.5 3.4-1.5 1.5-2.6 3.2-3.2 4.8 0 .1-.1.3-.1.5zm2-.9c.5-1.1 1.4-2.3 2.4-3.3 1.2-1.2 2.4-2 3.5-2.5l5.2 5.2c-1.1.7-2.2 1.6-3.2 2.7-1 1-1.9 2.1-2.7 3.2l-5.2-5.3zm6.5 13.4c-.7 0-1.2-.2-1.5-.5-.7-.7-.7-2.1 0-3.8.7-2 2.2-4.1 4.1-6 3.2-3.2 6.4-4.6 8.3-4.6.7 0 1.2.2 1.5.5.7.7.7 2.1 0 3.8-.7 1.8-1.9 3.7-3.6 5.5l-1.8-1.8c-.1-.1-.3-.2-.5-.2s-.4.1-.5.2c-.1.1-.2.3-.2.5s.1.4.2.5l1.8 1.8c-3.1 2.9-6.1 4.1-7.8 4.1z"/><path id="XMLID_253_" class="st0" d="M149.9 268.9h-.8c-.3 0-.5-.2-.6-.3-.2-.2-.2-.4-.2-.7.1-.5.5-.9 1-.9h.6c1.8 0 3.6-.8 5.1-2.2 1.3-1.3 2.1-2.9 2.2-4.5 0-.5.5-.9 1-.9.6 0 .9.5.9 1-.2 2.1-1.2 4.1-2.8 5.7-1.8 1.8-4.1 2.8-6.4 2.8z"/><path id="XMLID_252_" class="st0" d="M149.9 268.8c2.3 0 4.6-1 6.3-2.7 1.6-1.6 2.5-3.6 2.7-5.6 0-.4-.3-.8-.7-.8-.5 0-.8.3-.8.7-.1 1.7-1 3.3-2.3 4.7-1.5 1.5-3.4 2.3-5.2 2.3h-.6c-.5 0-.8.3-.8.7 0 .2 0 .4.2.6.1.2.3.3.5.3.2-.3.4-.2.7-.2z"/><path id="XMLID_251_" class="st0" d="M151.3 273.6c-.7 0-1.4-.1-2.1-.2-.5-.1-.9-.6-.8-1.1.1-.5.5-.8.9-.8h.2c.6.1 1.2.2 1.7.2 2.7 0 5.4-1.2 7.4-3.2 2.1-2.1 3.2-4.9 3.2-7.7 0-.5.4-1 1-1 .5 0 .9.4.9.9.1 3.3-1.2 6.6-3.7 9.1-2.4 2.4-5.5 3.8-8.7 3.8z"/><path id="XMLID_250_" class="st0" d="M162.8 260c-.5 0-.8.4-.8.8.1 2.8-1.1 5.7-3.2 7.8-2 2-4.8 3.2-7.5 3.2-.6 0-1.2-.1-1.8-.2h-.1c-.4 0-.7.3-.8.6-.1.4.2.8.6.9.7.1 1.4.2 2.1.2 3.1 0 6.3-1.3 8.6-3.7 2.4-2.4 3.8-5.7 3.7-9-.1-.3-.4-.6-.8-.6z"/><path id="XMLID_247_" class="st0" d="M144.9 240.8c-.3 0-.5-.1-.7-.3l-8.2-8.2c-.2-.2-.3-.4-.3-.7 0-.3.1-.5.3-.7l13.6-13.6c.2-.2.4-.3.7-.3s.5.1.7.3l8.2 8.2c.2.2.3.4.3.7s-.1.5-.3.7l-13.6 13.6c-.2.2-.4.3-.7.3zm0-2.3l12.2-12.2-6.9-6.9-12.2 12.2 6.9 6.9z"/><path id="XMLID_244_" class="st0" d="M144.4 240.4c.1.1.3.2.5.2s.4-.1.5-.2l13.6-13.6c.1-.1.2-.3.2-.5s-.1-.4-.2-.5l-8.2-8.2c-.1-.1-.3-.2-.5-.2s-.4.1-.5.2L136.2 231c-.1.1-.2.3-.2.5s.1.4.2.5l8.2 8.4zm5.9-21.3l7.1 7.1-12.5 12.5-7.1-7.1 12.5-12.5z"/><path id="XMLID_241_" class="st0" d="M116.4 269.3c-.3 0-.5-.1-.7-.3l-8.2-8.2c-.2-.2-.3-.4-.3-.7s.1-.5.3-.7l13.6-13.6c.2-.2.4-.3.7-.3s.5.1.7.3l8.2 8.2c.4.4.4 1 0 1.4L117.1 269c-.2.2-.5.3-.7.3zm0-2.3l12.2-12.2-6.9-6.9-12.2 12.2 6.9 6.9z"/><path id="XMLID_238_" class="st0" d="M122.3 246c-.1-.1-.3-.2-.5-.2s-.4.1-.5.2l-13.6 13.6c-.1.1-.2.3-.2.5s.1.4.2.5l8.2 8.2c.1.1.3.2.5.2s.4-.1.5-.2l13.6-13.6c.3-.3.3-.8 0-1.1l-8.2-8.1zm-5.9 21.3l-7.1-7.1 12.5-12.5 7.1 7.1-12.5 12.5z"/></g><path id="XMLID_234_" class="st0" d="M224.1 162.6l-1.4-1.4 1.4-1.4 1.4 1.4-1.4 1.4zm4.6-2.4h-1.4L225 158v-1.4c0-.5-.4-.9-.9-.9s-.9.4-.9.9v1.4l-2.2 2.2h-1.4c-.5 0-.9.4-.9.9s.4.9.9.9h1.4l2.2 2.2v1.4c0 .5.4.9.9.9s.9-.4.9-.9v-1.4l2.2-2.2h1.4c.5 0 .9-.4.9-.9s-.3-.9-.8-.9z"/><path id="XMLID_233_" class="st0" d="M220.5 165.7c0 1.2-1.8 1.2-1.8 0s1.8-1.2 1.8 0"/><path id="XMLID_230_" class="st0" d="M798.2 428.8c.2-.2.5-.5.7-.8.2.3.4.6.7.8.3.3.6.5.9.7-.3.2-.6.5-.9.7-.2.2-.4.5-.6.7-.2-.3-.4-.5-.6-.7-.3-.3-.6-.5-1-.8.2-.1.5-.4.8-.6zm-3.2 1.6s1.2.5 1.9 1.2c.5.5.9 1.4 1 1.8.1.4.5.6.9.6s.7-.3.9-.6c0 0 .4-1.1 1.1-1.7.6-.6 1.6-1 1.9-1.2.4-.1.6-.5.6-.9s-.3-.7-.6-.8c0 0-1.1-.4-1.8-1.2-.5-.5-1-1.5-1.1-1.8-.1-.4-.5-.6-.9-.6s-.7.2-.9.6c-.1.3-.6 1.3-1.1 1.8-.7.7-1.8 1.2-1.8 1.2-.4.1-.6.5-.6.9-.1.2.2.5.5.7z"/><path id="XMLID_227_" class="st0" d="M814 437.7c-.4.4-.7.9-1 1.3-.3-.4-.6-.9-1-1.3-.5-.5-1-.9-1.6-1.2.5-.3 1-.7 1.4-1.1.4-.4.8-.9 1.1-1.4.3.5.6 1 1.1 1.4.5.5 1 .9 1.5 1.1-.6.3-1.1.7-1.5 1.2zm3.8-2.1s-1.4-.5-2.5-1.6c-.9-.9-1.5-2.4-1.5-2.4-.1-.4-.5-.6-.8-.6-.4 0-.7.2-.9.6-.2.5-.8 1.8-1.5 2.5-1 1-2.5 1.6-2.5 1.6-.4.1-.6.5-.6.9s.2.7.6.9c0 0 1.7.7 2.6 1.6.7.7 1.2 1.9 1.4 2.4.1.4.5.6.9.6s.7-.3.9-.6c0 0 .5-1.4 1.4-2.4.9-.9 2.6-1.6 2.6-1.6.4-.1.6-.5.6-.9-.1-.5-.3-.9-.7-1z"/><path id="XMLID_224_" class="st0" d="M804.8 449.5l-.4.4c-.1-.1-.2-.3-.3-.4-.2-.2-.4-.3-.6-.5.2-.1.3-.3.5-.4.1-.1.3-.3.4-.5.1.2.3.3.4.5l.5.5c-.2.1-.4.2-.5.4zm2.7-1.3s-.8-.3-1.4-.9c-.4-.4-.7-1.1-.8-1.4-.1-.4-.5-.6-.9-.6s-.7.2-.9.6c-.1.3-.5 1-.9 1.4-.6.6-1.4.9-1.4.9-.4.1-.6.5-.6.9s.2.7.6.9c.3.1 1 .5 1.5.9.4.4.7 1.1.8 1.3.1.4.5.6.9.6s.7-.3.9-.6c.1-.2.4-.9.8-1.3s1.2-.8 1.5-.9c.4-.1.6-.5.6-.9-.1-.5-.3-.8-.7-.9z"/><path id="XMLID_221_" class="st0" d="M1042.3 457.9c-.3.2-.7.5-1 .8-.2.2-.4.5-.6.7-.2-.3-.4-.5-.6-.7-.3-.3-.6-.5-.9-.7.3-.2.6-.4.9-.7.3-.2.5-.5.7-.8.2.3.4.6.7.8.2.1.5.4.8.6zm2.9 0c0-.4-.2-.7-.6-.9 0 0-1.1-.4-1.8-1.2-.5-.5-1-1.5-1.1-1.8-.1-.3-.5-.6-.9-.6s-.7.2-.9.6c-.1.3-.5 1.3-1.1 1.8-.8.8-1.8 1.2-1.8 1.2-.4.1-.6.5-.6.8 0 .4.2.7.6.9.3.1 1.4.6 1.9 1.2.7.7 1.1 1.7 1.1 1.7.1.4.5.6.9.6s.7-.2.9-.6c.1-.3.5-1.3 1-1.8.7-.7 1.9-1.2 1.9-1.2.3 0 .5-.3.5-.7z"/><path id="XMLID_218_" class="st0" d="M1024.2 464.9c.5-.3 1-.7 1.5-1.1.4-.4.8-.9 1.1-1.4.3.5.7 1 1.1 1.4.5.4 1 .8 1.4 1.1-.5.3-1.1.7-1.6 1.2-.4.4-.7.8-1 1.3-.3-.4-.6-.9-1-1.3-.5-.5-1-.9-1.5-1.2zm-3 0c0 .4.2.7.6.9 0 0 1.7.7 2.6 1.6.9.9 1.4 2.4 1.4 2.4.1.4.5.6.9.6s.7-.2.9-.6c.2-.4.7-1.7 1.4-2.4 1-1 2.6-1.6 2.6-1.6.4-.1.6-.5.6-.9s-.2-.7-.6-.9c0 0-1.5-.6-2.5-1.6-.7-.7-1.3-2-1.5-2.5-.1-.4-.5-.5-.9-.6-.4 0-.7.2-.8.6 0 0-.6 1.5-1.5 2.4-1.1 1.1-2.5 1.6-2.5 1.6-.4.2-.7.6-.7 1z"/><path id="XMLID_215_" class="st0" d="M1034.3 477.4c.2-.1.4-.3.5-.5.1-.1.3-.3.4-.5.1.2.3.3.4.5.2.2.3.3.5.4-.2.1-.4.3-.6.5-.1.1-.2.3-.3.4-.1-.1-.2-.3-.4-.4-.1-.1-.3-.2-.5-.4zm-2.8 0c0 .4.2.7.6.9.3.1 1.1.5 1.5.9.4.4.7 1.1.8 1.3.1.4.5.6.9.6s.7-.2.9-.6c.1-.2.4-1 .8-1.3.5-.5 1.2-.8 1.5-.9.4-.1.6-.5.6-.9s-.2-.7-.6-.9c0 0-.9-.3-1.4-.9-.4-.4-.8-1.2-.9-1.4-.1-.3-.5-.5-.9-.6-.4 0-.7.3-.9.6-.1.2-.4 1-.8 1.4-.6.6-1.4.9-1.4.9-.4.2-.7.5-.7.9z"/><path id="XMLID_212_" class="st0" d="M1048.3 242.7c.3-.3.5-.6.7-.9.2.3.5.6.8.9.3.3.7.6 1 .8-.4.2-.7.5-1 .8-.3.3-.5.6-.7.8-.2-.3-.4-.6-.7-.8-.3-.3-.7-.6-1.1-.9.3-.1.7-.4 1-.7zm-3.6 1.8s1.4.6 2.2 1.4c.6.6 1 1.6 1.2 2 .2.4.5.7 1 .7.4 0 .8-.3 1-.7 0 0 .4-1.2 1.2-2 .6-.6 1.8-1.2 2.2-1.4.4-.2.7-.6.6-1 0-.4-.3-.8-.7-1 0 0-1.2-.4-2.1-1.3-.6-.6-1.1-1.7-1.2-2-.1-.4-.5-.7-1-.7-.4 0-.8.2-1 .6-.2.4-.7 1.5-1.3 2.1-.8.8-2.1 1.3-2.1 1.3-.4.2-.7.5-.7 1s.3.9.7 1z"/><path id="XMLID_209_" class="st0" d="M1034.8 266c-.5.5-.8 1-1.1 1.5-.3-.5-.7-1-1.1-1.4-.5-.5-1.2-1-1.8-1.4.5-.3 1.1-.8 1.6-1.3.4-.5.9-1 1.2-1.6.3.5.7 1.1 1.2 1.6s1.1 1 1.7 1.3c-.6.3-1.2.8-1.7 1.3zm4.4-2.4s-1.6-.6-2.8-1.8c-1-1-1.7-2.7-1.7-2.8-.1-.4-.5-.7-1-.7-.4 0-.8.2-1 .6-.2.5-.9 2-1.7 2.8-1.1 1.1-2.8 1.8-2.8 1.8-.4.2-.7.5-.7 1 0 .4.3.8.7 1 0 0 1.9.7 3 1.8.8.8 1.4 2.2 1.6 2.7.2.4.5.7 1 .7.4 0 .8-.3 1-.7 0 0 .6-1.6 1.6-2.7 1-1 2.9-1.8 2.9-1.8.4-.2.7-.6.7-1-.1-.3-.4-.7-.8-.9z"/><path id="XMLID_206_" class="st0" d="M727 328l-1.4-1.4 1.4-1.4 1.4 1.4-1.4 1.4zm4.5-2.3h-1.4l-2.2-2.2V322c0-.5-.4-.9-.9-.9s-.9.4-.9.9v1.4l-2.2 2.2h-1.4c-.5 0-.9.4-.9.9s.4.9.9.9h1.4l2.2 2.2v1.4c0 .5.4.9.9.9s.9-.4.9-.9v-1.4l2.2-2.2h1.4c.5 0 .9-.4.9-.9 0-.4-.4-.8-.9-.8z"/><path id="XMLID_205_" class="st0" d="M723.3 331.1c0 1.2-1.8 1.2-1.8 0s1.8-1.2 1.8 0"/><path id="XMLID_121_" class="st0" d="M783 278.6c-.6-.3-.9-1.1-.6-1.7.3-.6 1.1-.8 1.7-.5.7.3.9 1.1.6 1.7-.2.6-1 .8-1.7.5zm2-3.9c-1.6-.8-3.5-.2-4.2 1.3-.8 1.5-.2 3.4 1.4 4.2s3.5.2 4.2-1.3c.8-1.5.2-3.4-1.4-4.2z"/><path id="XMLID_118_" class="st0" d="M839.6 280.7c.3.1.4.4.3.7-.1.2-.5.3-.7.2-.3-.1-.4-.4-.3-.7.1-.3.5-.3.7-.2zm-1.3 2.6c1.2.6 2.6.2 3.2-1s.1-2.6-1.1-3.2-2.6-.2-3.2 1c-.6 1.2-.1 2.6 1.1 3.2z"/><path id="XMLID_115_" class="st0" d="M821.1 253.9c1.2.6 1.7 2 1.1 3.2-.6 1.2-2 1.6-3.2 1-1.2-.6-1.7-2-1.1-3.2.7-1.2 2.1-1.6 3.2-1zm-3 5.8c2.1 1.1 4.7.3 5.7-1.8 1.1-2.1.3-4.6-1.9-5.7-2.1-1.1-4.7-.3-5.7 1.8s-.1 4.6 1.9 5.7z"/><path id="XMLID_114_" class="st0" d="M780.7 231.1l1.2.6-.6 1.2c-.3.5-.1 1 .4 1.3.5.3 1 .1 1.3-.4l.6-1.2 1.2.6c.5.3 1 .1 1.3-.4.3-.5.1-1-.4-1.3l-1.2-.6.6-1.2c.3-.5.1-1-.4-1.3-.5-.3-1-.1-1.3.4l-.6 1.2-1.2-.6c-.5-.3-1-.1-1.3.4-.3.6-.1 1.1.4 1.3z"/><path id="XMLID_113_" class="st0" d="M823.1 303.5l-1.2-.6.6-1.2c.3-.5.1-1-.4-1.3-.5-.3-1-.1-1.3.4l-.6 1.2-1.2-.6c-.5-.3-1-.1-1.3.4-.3.5-.1 1 .4 1.3l1.2.6-.6 1.2c-.3.5-.1 1 .4 1.3s1 .1 1.3-.4l.6-1.2 1.2.6c.5.3 1 .1 1.3-.4.3-.5.1-1.1-.4-1.3z"/><path id="XMLID_112_" class="st0" d="M835.9 258.7c.1.2.3.5.4.5.2.1.5.1.7 0l1.3-.4.5 1.3c.1.2.2.4.4.5.3.1.5.1.7 0 .5-.2.8-.7.6-1.2l-.4-1.3 1.3-.4c.5-.2.8-.7.6-1.2-.2-.5-.7-.8-1.2-.6l-1.3.4-.5-1.3c-.2-.5-.7-.8-1.2-.6-.5.2-.8.7-.6 1.2l.4 1.3-1.3.4c-.2.3-.5.9-.4 1.4z"/><path id="XMLID_111_" class="st0" d="M765.7 272.4c-.2-.5-.7-.8-1.2-.6l-1.3.4-.5-1.3c-.2-.5-.7-.8-1.2-.6-.5.2-.8.7-.6 1.2l.4 1.3-1.3.4c-.5.2-.8.7-.6 1.2.1.2.3.5.4.5.3.1.5.1.7 0l1.3-.4.5 1.3c.1.2.2.4.4.5.3.1.5.1.7 0 .5-.2.8-.7.6-1.2l-.4-1.3 1.3-.4c.7 0 1-.5.8-1z"/><path id="XMLID_110_" class="st0" d="M775.3 284.8c-.6 1.1-2.2.2-1.7-.9.7-1.1 2.3-.2 1.7.9"/><path id="XMLID_109_" class="st0" d="M828.8 279.3c-.6 1.1-2.2.2-1.7-.9.6-1 2.3-.2 1.7.9"/><path id="XMLID_108_" class="st0" d="M805 240.1c-.6 1.1-2.2.2-1.7-.9.6-1 2.3-.2 1.7.9"/><path id="XMLID_107_" class="st0" d="M777.8 272.1c-9.2-8.4-13.3-17.1-10.4-22.6 4.5-8.7 23.9-7.7 43.2 2.3.5.3 1 .1 1.3-.4.3-.5.1-1-.4-1.3-20.6-10.6-40.7-11.3-45.7-1.5-3.3 6.4.7 15.8 10.8 24.8.1 0 .2.1.3.1.3.2.8.1 1.1-.1.3-.4.3-.9-.2-1.3z"/><path id="XMLID_91_" class="st0" d="M838.7 285.3c-.5-.3-1-.1-1.3.4-4.5 8.7-23.9 7.7-43.2-2.3-1.2-.6-2.3-1.2-3.3-1.8-.4-.2-1-.1-1.3.4-.3.5-.1 1 .4 1.3 1.1.7 2.3 1.3 3.4 1.9 20.6 10.6 40.7 11.3 45.7 1.5.3-.7.1-1.2-.4-1.4z"/><path id="XMLID_90_" class="st0" d="M827.1 263c5.1 4.6 8.7 9.3 10.3 13.7.1.2.2.4.4.5.3.1.5.1.7 0 .5-.2.7-.7.5-1.2-1.8-4.6-5.5-9.6-10.8-14.4-.4-.3-1-.3-1.3.1-.3.4-.3 1 .2 1.3z"/><path id="XMLID_87_" class="st0" d="M788 249.6c-6.1 0-10.3 1.9-11.8 5.2-1.5 3.4-.1 7.8 3.9 12.4 4.2 4.8 10.2 9.2 17 12.7 9.1 4.7 19.3 7.7 27.8 7.7.5 0 1-.4.9-.9 0-.5-.4-1-.9-.9-14.4 0-34-8.9-43.4-19.7-3.4-4-4.7-7.7-3.5-10.4 1.2-2.6 4.9-4.2 10.1-4.2 9.1 0 21.5 5.6 27.6 12.5 2.1 2.4 2.9 4.7 2.2 6.3s-2.9 2.5-6.2 2.5c-5.8 0-13.6-3.5-17.4-7.9-.3-.4-.9-.4-1.3-.1-.4.3-.5.9-.1 1.3 4.1 4.7 12.5 8.6 18.7 8.5 4 0 6.8-1.3 7.8-3.6 1.1-2.3.2-5.2-2.5-8.3-6.3-7.3-19.3-13.2-28.9-13.1z"/><path id="XMLID_86_" class="st0" d="M800.6 264.7c-.3.5-.1 1 .4 1.3 2 1 4 1.6 5.5 1.7.5 0 .9-.4 1-.9 0-.5-.4-.9-.9-1-1.2 0-2.9-.6-4.7-1.5-.5-.2-1.1 0-1.3.4z"/><path id="XMLID_77_" class="st0" d="M806 261.4c-.6-.4-1.2-.8-2-1.2-2.2-1.2-4.5-1.8-6.1-1.7-.5 0-.9.5-.8 1 0 .3.2.6.4.8.2.1.3.2.5.1 1.2-.1 3.2.5 5.1 1.5.7.3 1.2.6 1.8 1 .4.3 1 .2 1.3-.3.4-.4.3-1-.2-1.2z"/><g id="XMLID_429_"><path id="XMLID_430_" class="st1" d="M525.7 228.5c0-5.4 7.7-5.9 7.7-10.3 0-2.1-1.7-3.9-5-3.9-3.2 0-5.2 1.4-6.7 3.5l-2.1-2.3c2-2.6 5.2-4.3 9.2-4.3 5.2 0 8.3 2.9 8.3 6.6 0 6.4-8.2 7-8.2 11.1 0 .7.4 1.5 1.1 2.1l-2.6 1.1c-1.2-1.2-1.7-2.3-1.7-3.6zm.2 9.4c0-1.3 1.1-2.3 2.3-2.3 1.3 0 2.3 1.1 2.3 2.3 0 1.3-1.1 2.3-2.3 2.3-1.3 0-2.3-1.1-2.3-2.3z"/></g><g id="XMLID_425_"><path id="XMLID_426_" class="st1" d="M558.1 196.3c-1.8-2.4 1.5-5.2 0-7.2-.7-1-2.1-1.2-3.6-.1-1.4 1.1-1.9 2.4-1.9 3.8l-1.7-.3c0-1.9.9-3.7 2.7-5 2.3-1.7 4.7-1.5 5.9.2 2.2 2.9-1.4 5.9 0 7.8.2.3.7.5 1.2.5l-.8 1.4c-.7-.2-1.4-.6-1.8-1.1zm3.3 4.1c-.4-.6-.3-1.4.3-1.8.6-.4 1.4-.3 1.8.3.4.6.3 1.4-.3 1.8-.6.4-1.4.3-1.8-.3z"/></g><g id="XMLID_419_"><path id="XMLID_420_" class="st1" d="M483.8 200.8c2.4-3 6.9.1 8.9-2.4.9-1.2.8-3-1.1-4.4-1.8-1.4-3.5-1.5-5.3-1l-.2-2.2c2.3-.6 4.8-.1 7.1 1.7 2.9 2.3 3.4 5.3 1.7 7.4-2.9 3.6-7.7.2-9.6 2.6-.3.4-.4 1-.3 1.7l-1.9-.5c-.1-1.3.2-2.2.7-2.9zm-4 5.3c.6-.7 1.6-.8 2.4-.3.7.6.8 1.6.3 2.4-.6.7-1.6.8-2.4.3-.8-.6-.9-1.7-.3-2.4z"/></g><g id="XMLID_416_"><path id="XMLID_418_" class="st1" d="M506.2 213.1h-.2c-.4 0-.8.3-.9.7-.1.5.2 1 .7 1.1h.2c.4 0 .8-.3.9-.7.1-.5-.2-1-.7-1.1z"/><path id="XMLID_417_" class="st1" d="M509.8 206.9c-.4-.5-1-.9-1.8-1.1-.3-.1-.6-.1-1-.1-.8 0-1.6.3-2.3.8l-.2.1.7 1.2.2-.2c.5-.4.9-.6 1.5-.6.2 0 .4 0 .6.1.4.1.7.3.9.5.2.2.2.5.1.7-.1.5-.6.7-1.2 1-.7.3-1.5.6-1.7 1.6-.1.5 0 .9.3 1.3l.1.1 1.4-.2-.3-.3c-.1-.2-.2-.4-.1-.5.1-.4.6-.6 1.2-.9.8-.3 1.8-.7 2-1.9.1-.4 0-1.1-.4-1.6z"/></g><g id="XMLID_413_"><path id="XMLID_415_" class="st1" d="M545.2 181.1l1.4-.7-.4-.2c-.2-.1-.3-.3-.3-.5 0-.5.4-.9 1-1.3.7-.6 1.6-1.3 1.5-2.7-.1-1.1-.8-1.9-2-2.2-.4-.1-.8-.1-1.2-.1-1.4.1-2.5.7-3.2 1.8l-.1.2 1.2 1.1.2-.3c.5-.8 1.1-1.2 2-1.2h.7c.5.1.8.5.8.9 0 .6-.4 1-1 1.4-.7.5-1.4 1.2-1.3 2.2 0 .5.3 1 .7 1.3v.3z"/><path id="XMLID_414_" class="st1" d="M545.9 181.7h-.3c-.3 0-.5.1-.7.4s-.3.5-.3.8c0 .5.4.8.8.9h.3c.3 0 .5-.1.7-.4.2-.2.3-.5.3-.8 0-.4-.3-.8-.8-.9z"/></g><g id="XMLID_409_"><path id="XMLID_410_" class="st1" d="M517.7 183.4c-.7-3 3.5-4.2 2.9-6.7-.3-1.2-1.4-2-3.2-1.5-1.7.4-2.7 1.4-3.3 2.8l-1.5-1c.8-1.7 2.3-3 4.5-3.5 2.8-.7 4.9.6 5.4 2.6.8 3.5-3.6 4.9-3.1 7.1.1.4.4.8.9 1l-1.3.9c-.7-.4-1.1-1-1.3-1.7zm1.3 5.1c-.2-.7.3-1.4 1-1.6.7-.2 1.4.3 1.6 1 .2.7-.3 1.4-1 1.6-.7.2-1.4-.3-1.6-1z"/></g><path id="XMLID_396_" class="st1" d="M490.4 234.2c-2.9 0-5.6-1.2-7.4-3.4-3.5-4.1-3-10.2 1.1-13.7 1.8-1.5 4-2.3 6.3-2.3 2.9 0 5.6 1.2 7.4 3.4 1.7 2 2.5 4.5 2.3 7.1-.2 2.6-1.4 4.9-3.4 6.6-1.7 1.4-3.9 2.3-6.3 2.3zm0-17.1c-1.7 0-3.4.6-4.7 1.8-1.5 1.3-2.4 3-2.5 5-.2 1.9.5 3.8 1.7 5.3 1.4 1.6 3.4 2.5 5.6 2.5 1.8 0 3.4-.6 4.7-1.7 1.5-1.3 2.4-3 2.5-5 .2-1.9-.5-3.8-1.7-5.3-1.4-1.6-3.4-2.6-5.6-2.6z"/><path id="XMLID_395_" class="st1" d="M508.3 244.3c-1 0-1.9-.4-2.6-1.2-.6-.7-.9-1.6-.8-2.5.1-.9.5-1.7 1.2-2.3.6-.5 1.3-.8 2.2-.8 1 0 2 .4 2.6 1.1 1.2 1.4 1 3.6-.4 4.8-.7.6-1.4.9-2.2.9z"/><path d="M598.9 229.6c0-36.5-29.6-66.1-66.1-66.1s-66.1 29.6-66.1 66.1v1c0 36.5 29.6 66.1 66.1 66.1s66.1-29.6 66.1-66.1v-1z" fill="#ef898b"/><g id="XMLID_391_"><path id="XMLID_392_" class="st1" d="M525.7 229.5c0-5.4 7.7-5.9 7.7-10.3 0-2.1-1.7-3.9-5-3.9-3.2 0-5.2 1.4-6.7 3.5l-2.1-2.3c2-2.6 5.2-4.3 9.2-4.3 5.2 0 8.3 2.9 8.3 6.6 0 6.4-8.2 7-8.2 11.1 0 .7.4 1.5 1.1 2.1l-2.6 1.1c-1.2-1.2-1.7-2.3-1.7-3.6zm.2 9.4c0-1.3 1.1-2.3 2.3-2.3 1.3 0 2.3 1.1 2.3 2.3 0 1.3-1.1 2.3-2.3 2.3-1.3 0-2.3-1.1-2.3-2.3z"/></g><g id="XMLID_387_"><path id="XMLID_388_" class="st1" d="M558.1 197.3c-1.8-2.4 1.5-5.2 0-7.2-.7-1-2.1-1.2-3.6-.1-1.4 1.1-1.9 2.4-1.9 3.8l-1.7-.3c0-1.9.9-3.7 2.7-5 2.3-1.7 4.7-1.5 5.9.2 2.2 2.9-1.4 5.9 0 7.8.2.3.7.5 1.2.5l-.8 1.4c-.7-.2-1.4-.6-1.8-1.1zm3.3 4.1c-.4-.6-.3-1.4.3-1.8.6-.4 1.4-.3 1.8.3.4.6.3 1.4-.3 1.8-.6.4-1.4.3-1.8-.3z"/></g><g id="XMLID_383_"><path id="XMLID_384_" class="st1" d="M483.8 201.8c2.4-3 6.9.1 8.9-2.4.9-1.2.8-3-1.1-4.4-1.8-1.4-3.5-1.5-5.3-1l-.2-2.2c2.3-.6 4.8-.1 7.1 1.7 2.9 2.3 3.4 5.3 1.7 7.4-2.9 3.6-7.7.2-9.6 2.6-.3.4-.4 1-.3 1.7l-1.9-.5c-.1-1.3.2-2.2.7-2.9zm-4 5.3c.6-.7 1.6-.8 2.4-.3.7.6.8 1.6.3 2.4-.6.7-1.6.8-2.4.3-.8-.6-.9-1.7-.3-2.4z"/></g><g id="XMLID_380_"><path id="XMLID_382_" class="st1" d="M506.2 214.1h-.2c-.4 0-.8.3-.9.7-.1.5.2 1 .7 1.1h.2c.4 0 .8-.3.9-.7.1-.5-.2-1-.7-1.1z"/><path id="XMLID_381_" class="st1" d="M509.8 207.9c-.4-.5-1-.9-1.8-1.1-.3-.1-.6-.1-1-.1-.8 0-1.6.3-2.3.8l-.2.1.7 1.2.2-.2c.5-.4.9-.6 1.5-.6.2 0 .4 0 .6.1.4.1.7.3.9.5.2.2.2.5.1.7-.1.5-.6.7-1.2 1-.7.3-1.5.6-1.7 1.6-.1.5 0 .9.3 1.3l.1.1 1.4-.2-.3-.3c-.1-.2-.2-.4-.1-.5.1-.4.6-.6 1.2-.9.8-.3 1.8-.7 2-1.9.1-.4 0-1.1-.4-1.6z"/></g><g id="XMLID_373_"><path id="XMLID_379_" class="st1" d="M545.2 182.1l1.4-.7-.4-.2c-.2-.1-.3-.3-.3-.5 0-.5.4-.9 1-1.3.7-.6 1.6-1.3 1.5-2.7-.1-1.1-.8-1.9-2-2.2-.4-.1-.8-.1-1.2-.1-1.4.1-2.5.7-3.2 1.8l-.1.2 1.2 1.1.2-.3c.5-.8 1.1-1.2 2-1.2h.7c.5.1.8.5.8.9 0 .6-.4 1-1 1.4-.7.5-1.4 1.2-1.3 2.2 0 .5.3 1 .7 1.3v.3z"/><path id="XMLID_378_" class="st1" d="M545.9 182.7h-.3c-.3 0-.5.1-.7.4s-.3.5-.3.8c0 .5.4.8.8.9h.3c.3 0 .5-.1.7-.4.2-.2.3-.5.3-.8 0-.4-.3-.8-.8-.9z"/></g><g id="XMLID_365_"><path id="XMLID_369_" class="st1" d="M517.7 184.4c-.7-3 3.5-4.2 2.9-6.7-.3-1.2-1.4-2-3.2-1.5-1.7.4-2.7 1.4-3.3 2.8l-1.5-1c.8-1.7 2.3-3 4.5-3.5 2.8-.7 4.9.6 5.4 2.6.8 3.5-3.6 4.9-3.1 7.1.1.4.4.8.9 1l-1.3.9c-.7-.4-1.1-1-1.3-1.7zm1.3 5.1c-.2-.7.3-1.4 1-1.6.7-.2 1.4.3 1.6 1 .2.7-.3 1.4-1 1.6-.7.2-1.4-.3-1.6-1z"/></g><path id="XMLID_362_" class="st1" d="M490.4 235.2c-2.9 0-5.6-1.2-7.4-3.4-3.5-4.1-3-10.2 1.1-13.7 1.8-1.5 4-2.3 6.3-2.3 2.9 0 5.6 1.2 7.4 3.4 1.7 2 2.5 4.5 2.3 7.1-.2 2.6-1.4 4.9-3.4 6.6-1.7 1.4-3.9 2.3-6.3 2.3zm0-17.1c-1.7 0-3.4.6-4.7 1.8-1.5 1.3-2.4 3-2.5 5-.2 1.9.5 3.8 1.7 5.3 1.4 1.6 3.4 2.5 5.6 2.5 1.8 0 3.4-.6 4.7-1.7 1.5-1.3 2.4-3 2.5-5 .2-1.9-.5-3.8-1.7-5.3-1.4-1.6-3.4-2.6-5.6-2.6z"/><path id="XMLID_361_" class="st1" d="M508.3 245.3c-1 0-1.9-.4-2.6-1.2-.6-.7-.9-1.6-.8-2.5.1-.9.5-1.7 1.2-2.3.6-.5 1.3-.8 2.2-.8 1 0 2 .4 2.6 1.1 1.2 1.4 1 3.6-.4 4.8-.7.6-1.4.9-2.2.9z"/><path class="st1" d="M451.7 249.8c-.6-.8-1.7-1.4-2.8-1.4-.7 0-1.4.2-1.9.6-.7.5-1.2 1.3-1.3 2.2-.1.3 0 .7 0 1-.1.9.1 1.8.6 2.5.6.9 1.7 1.4 2.7 1.4.7 0 1.4-.2 2-.6.7-.5 1.2-1.3 1.3-2.2.1-.3 0-.7 0-1 .2-.9 0-1.8-.6-2.5zm159-88.6c-1.1-1.9-3.4-3.1-5.8-3.1-1.2 0-2.3.3-3.2.9-1.5.9-2.6 2.3-3 4-.2.7-.2 1.4-.2 2.1-.1 1.3.2 2.7.9 3.9 1.2 2 3.3 3.2 5.6 3.2 1.2 0 2.4-.3 3.4-.9 1.5-.9 2.6-2.3 3-4 .2-.7.2-1.4.2-2.1.1-1.5-.2-2.8-.9-4zm-1.6 4.4c-.3 1.1-.9 2-1.9 2.6-.6.4-1.3.6-2.1.6-1.5 0-2.9-.8-3.6-2-.3-.5-.5-1-.5-1.6 0-.2 0-.4.1-.5.3-1.1.9-2 1.9-2.6.7-.4 1.4-.6 2.1-.6 1.5 0 2.8.8 3.6 2 .3.5.5 1 .6 1.6-.1.1-.1.3-.2.5zm-2.2 93.6c-.9-2-3-3.3-5.3-3.3-.8 0-1.5.2-2.2.5-1.4.6-2.4 1.8-3 3.2-.3.8-.4 1.7-.3 2.5-.1 1 .1 1.9.5 2.8.9 2 3 3.3 5.2 3.3.8 0 1.6-.2 2.3-.5 1.4-.6 2.4-1.8 3-3.2.3-.8.4-1.7.3-2.5 0-.9-.1-1.9-.5-2.8zm-2.1 3.4c-.3.8-.9 1.5-1.7 1.8-.4.2-.9.3-1.3.3-1.3 0-2.5-.8-3-1.9-.1-.3-.2-.6-.2-.9 0-.2.1-.4.2-.6.3-.8.9-1.4 1.7-1.8.4-.2.9-.3 1.4-.3 1.3 0 2.4.7 3 1.9.1.3.2.6.2.9-.2.3-.3.5-.3.6zm-9.9-74.3c.6 1 1.7 1.6 2.9 1.6.6 0 1.2-.2 1.7-.5 1.2-.7 1.8-2.1 1.6-3.4.1-.7 0-1.5-.4-2.2-.6-1-1.8-1.6-3-1.6-.6 0-1.2.2-1.6.4-.8.5-1.3 1.2-1.5 2.1-.1.5-.1.9-.1 1.4-.2.8 0 1.5.4 2.2zm8 36.2v-1c.1-7.1-4.4-13.9-13.1-19.8l-.2-.1-.1-.2v-.3c-.4-1.3-.8-2.6-1.4-4.1-.3-.9-.7-1.7-1-2.5-.4-1-.9-2-1.5-3.3l-.1-.3c-.1-.2-.1-.3-.2-.4.7-3.2 1-6.2.9-8.9.1-6.3-1.7-11.5-5.2-15.1-3.6-3.7-8.8-5.6-15.4-5.6-2.4 0-5.1.3-7.8.8l-.4.1-.3-.2c-6.4-3.4-13.2-5.8-20.4-7l-.3-.1c-.8-.1-1.6-.3-2.7-.4-.1 0-.9-.1-.9-.1-.7-.1-1.4-.1-2.1-.2-.4 0-.9-.1-1.2-.1-.7 0-1.3-.1-2-.1h-2.1c-1.9 0-3.9.1-6 .3h-.6c-1.7.2-3.4.4-5.3.8l-1.7.3c-1.2.2-2.5.6-4 1-1.1.3-2.3.7-3.8 1.2l-1.8.6c-8.9 3.3-16.8 8.3-23.5 14.8-5.3 5.1-9.7 11.2-13 17.9-.4.7-.7 1.4-1.2 2.4-.4 1-.9 1.9-1.2 2.8-.5 1.4-1 2.6-1.4 3.7l-.1.3-.3.2c-8.8 5.7-13.6 12.4-13.6 19.5v1c-.1 7 4.4 13.9 13.1 19.8l.3.2.1.3c1.1 3.7 2.5 7.3 4.3 10.7-.7 3.2-1 6.2-.9 8.9-.1 6.3 1.7 11.5 5.2 15.1 3.6 3.7 8.8 5.6 15.5 5.6 2.3 0 4.9-.3 7.7-.8l.4-.1.3.2c1.7.9 3.5 1.8 5.2 2.5l.2.1c1.9.8 3.8 1.5 5.9 2.2l.2.1c1.9.6 4 1.1 6.1 1.6.1 0 .2 0 .3.1 2 .4 4 .7 6.1 1h.5c2 .2 4 .3 6.1.4h1.4c1.9 0 3.9-.1 6-.3h.6c1.6-.2 3.3-.4 5.3-.8.5-.1 1.1-.2 1.6-.3 1.4-.3 2.9-.7 4.1-1 1.1-.3 2.2-.7 3.6-1.1l.3-.1c.6-.2 1.1-.4 1.7-.6 8.9-3.3 16.8-8.3 23.5-14.8 7-6.8 12.3-14.8 15.8-24 0 0 .3-.9.4-1l.3-.9.3-.9.1-.3.3-.2c8.3-5.6 13-12.4 13.1-19.5zm-144.6-16.3l2-1.7-.4 1.7c-1 4.4-1.5 8.9-1.5 13.4v1c-.1 4.5.3 9 1.2 13.5l.3 1.7-2-1.8c-4.9-4.3-7.5-9.1-7.7-13.9.2-4.8 2.9-9.5 8.1-13.9zm134.1 29.5l-2 1.7.4-1.7c0-.2.1-.4.1-.6 0-.2.1-.4.1-.6.4-1.9.6-3.6.8-5.2v-.6c.2-2.1.4-4.2.4-6.2v-1.6c0-1.8-.1-3.7-.2-5.8v-.4c-.2-1.8-.4-3.7-.8-5.8 0-.3-.1-.5-.1-.7l-.3-1.8 1.9 1.7c4.9 4.4 7.5 9 7.7 13.7-.1 4.8-2.9 9.7-8 13.9zm-7.7 10.1c-9.2 21.4-29.2 36.3-52.3 38.8h-.5c-2.1.2-4.3.3-6.6.3-.9 0-1.7-.1-2.5-.1-.3 0-.7 0-1-.1h-.8c-.8 0-1.7-.1-2.5-.2s-1.6-.2-2.3-.3l-.6-.1-.8-.1c-.9-.1-1.7-.2-2.6-.4-.6-.1-1.1-.3-1.7-.4-.3-.1-.6-.2-1-.3l-.9-.2c-.8-.2-1.7-.4-2.6-.7-.5-.2-1.1-.4-1.6-.6l-.9-.3-.9-.3c-.8-.3-1.7-.6-2.5-1-.1 0-.2-.1-.3-.2l-.2-.1-1.1-.5 1.2-.4c4.9-1.5 10.1-3.7 15.4-6.5 6.7-3.5 13.6-8 20.3-13.3.8-.6 1.6-1.3 2.4-2l1.2-1h.3c17.2-1.2 32.4-4.8 44-10.5l1.9-.9-.5 1.4zm-97.5 32h-1.8c-6 0-10.7-1.6-13.9-4.9-2.9-3-4.4-7.3-4.5-12.7 0-.7 0-1.4.1-2.1l.3-3 1.6 2.5c1.1 1.6 2.2 3.3 3.6 5 .1.1.1.2.2.3 0 .1.1.1.1.2 1.5 1.9 3 3.5 4.5 5.1l.2.1v.1c1.5 1.5 3 2.9 4.5 4.2l.2.2c1.6 1.3 3.2 2.6 5.1 3.9.1 0 .3.3.3.3l.9.7-1.4.1zm3.5-2.9c-.6-.3-1.1-.7-1.7-1.1-1.3-.9-2.6-1.9-3.8-2.9-.2-.1-.3-.3-.5-.4-.2-.2-.5-.4-.7-.6-1.6-1.3-3.2-2.8-4.8-4.4-1.5-1.5-2.9-3.2-4.3-4.9v-.2c-3.9-5-7.1-10.5-9.4-16.3l-.5-1.3 1.9 1c4.6 2.4 9.8 4.6 15.5 6.3 7.3 2.3 15.3 4 23.7 5 6.1.8 12.4 1.2 19 1.3h2.5c1.5 0 3 0 4.5-.1h1.8l-1.1.9c-6.2 4.7-12.4 8.7-18.5 11.9-7.1 3.7-13.7 6.2-19.7 7.6l-.4.1-.3-.2c-.4-.2-.9-.5-1.3-.8-.2-.2-.5-.3-.8-.5-.6-.1-.9-.3-1.1-.4zm-28.5-66.7c.2-.8.4-1.5.6-2.3.1-.3.2-.6.3-1 .1-.4.2-.7.3-1.1.2-.7.4-1.4.6-2 .1-.2.2-.5.3-.7.1-.2.1-.3.2-.5 8.1-23.6 29.4-40.6 54.1-43.3.1 0 .5-.1.5-.1 2.1-.2 4.3-.3 6.5-.3.7 0 1.4 0 2.1.1.4 0 .8 0 1.1.1h.4c1.1.1 2.3.1 3.4.2.5 0 .9.1 1.4.2.3 0 .6.1.9.1 1.4.2 2.8.4 4.2.7.3.1.6.1.9.2.2 0 .3.1.5.1 1.4.3 3.2.8 5 1.4l.2.1s.1 0 .2.1c15.7 5.2 28.7 16.2 36.6 30.9-1.5 5.8-4.1 12.1-7.7 18.7l-.4.8-.8-.4c-1.8-.7-3.5-1.1-5.2-1.1-1.1 0-2.2.1-3.3.4-3.4.9-6.3 3-8.1 6.1-1.3 2.2-1.9 4.6-1.9 7.1-.1 1.3.1 2.6.4 3.9.5 2.1 1.6 4.1 3.1 5.7l.2.2-.1.2c-3.4 4-6.9 7.7-10.3 11-2.9 2.8-6 5.6-9.7 8.7l-.3.2h-.3c-3.6.2-7.2.3-10.7.3h-2.2c-6.4-.1-12.7-.5-18.7-1.3-8.3-1-16.1-2.7-23.3-4.9-7.5-2.3-14-5.2-19.3-8.5l-.3-.2-.1-.4c-1.6-5.7-2.3-11.6-2.3-17.5.1-3.7.5-7.3 1.1-10.9 0-.2.1-.4.1-.6l-.2-.4zm101.4-43.9c.7 0 1.4-.1 2.1-.1 5.9 0 10.5 1.6 13.6 4.8 2.9 2.9 4.4 7.3 4.5 12.7 0 .7 0 1.4-.1 2.1l-.2 3-1.6-2.5c-.2-.2-.3-.5-.5-.7-.2-.2-.3-.4-.5-.7-.7-1.1-1.4-2-2.1-2.9-.6-.8-1.2-1.6-1.7-2.1-.8-.9-1.6-1.9-2.7-3.1-.1-.2-.3-.3-.4-.5-.1-.2-.3-.3-.4-.5-3.2-3.3-6.6-6.2-10.3-8.7l-1.1-.8h1.4zm7.1 68.6c-.8.2-1.7.3-2.6.3-4.9 0-9.4-3.4-10.6-8.2-.2-.7-.3-1.4-.3-2.1.2-4.7 3.4-8.8 8.1-10 .9-.2 1.8-.3 2.7-.3 5 0 9.3 3.4 10.5 8.2.2.7.3 1.4.3 2.1-.2 4.7-3.4 8.8-8.1 10zm15.9 6.9c-10.1 6-24.7 10.3-41.2 12.2l-1.9.2 1.1-1c1.8-1.6 3.5-3.1 5.1-4.7 3.5-3.4 7.1-7.2 10.6-11.3l.5-.6.7.4c2 1.1 4.2 1.7 6.5 1.7 1 0 2.2-.1 3.3-.4 3.4-.9 6.3-3 8.1-6.1 1.3-2.2 1.9-4.6 1.9-7.1.1-1.3-.1-2.6-.4-3.9-.6-2.5-2.1-4.9-4.1-6.7l-.2-.2c2.9-5.2 5.2-10.2 6.7-14.9l.9-2.6 1 2.5c1.6 3.8 2.7 7.8 3.5 11.8l.1.3c.3 1.6.6 3.4.8 5.5 0 .1 0 .2.1.4 0 .2.1.4.1.6.2 1.9.2 3.8.2 5.8-.1 5.9-1 11.8-2.8 17.6l-.1.4-.5.1zM312.1 7.2L305.2.3c-.4-.4-1-.4-1.4 0-.3.3-.4.8-.1 1.2-.2.4-.2.9.1 1.2l6.9 6.9c.4.4 1 .4 1.4 0 .3-.3.4-.8.1-1.2.2-.4.2-.9-.1-1.2zm-1 14.7l-6.9-6.9c-.4-.4-1-.4-1.4 0-.3.3-.4.8-.1 1.2-.2.4-.2.9.1 1.2l6.9 6.9c.4.4 1 .4 1.4 0 .3-.3.4-.8.1-1.2.3-.4.2-.9-.1-1.2zm21.3-6.4l6.9 6.9c.4.4 1 .4 1.4 0 .3-.3.4-.8.1-1.2.2-.4.2-.9-.1-1.2l-6.9-6.9c-.4-.4-1-.4-1.4 0-.3.3-.4.8-.1 1.2-.3.4-.3.9.1 1.2zm74 85.7l-87.3-87.3c-.4-.4-1-.4-1.4 0-.3.3-.4.8-.1 1.2-.2.4-.2.9.1 1.2l87.4 87.4.3-.3c.1-.2.3-.3.5-.5.1-.1.1-.2.2-.3.1-.1.3-.2.4-.4l-.5-.5.1-.1c.1-.2.2-.3.3-.4zm-87.7-72.1c-.4-.4-1-.4-1.4 0-.3.3-.4.8-.1 1.2-.2.4-.2.9.1 1.2l86 86 1.4-1.4-.5-.5.5-.5-86-86zm134 99.8c-2.2-1.7-4.5-3.2-6.6-4.5l-8.3-18-5.8 10.9-.6-.2-.7-.3-9.6 9.6.3.7-.3.3.2.6-10.7 5.5 1.1.5-1.1.5 17.5 7.6c1.4 2.4 3.1 5 4.9 7.4 10.1 13.5 21.7 18.6 33.5 14.7l.6-.2.2-.6c1-3 1.4-5.9 1.3-8.8-.1-8.9-5.4-17.7-15.9-25.7zM437.6 113l4 8.7-1.2-.5c-2.2-1.2-4.2-2.1-5.8-2.8l3-5.4zm-20.2 20.8l5.1-2.6c.7 1.6 1.6 3.7 2.9 6.1l-8-3.5zm47.7 27.4c-16.3 4.9-28.6-10.2-35.4-22.1l-5.1-10.2c-.2-.4-.3-.8-.5-1.1l3.6-3.6 3.2-3.2 8 3.4c10.4 5.4 26.6 16.2 27 30.9.2 1.8-.1 3.8-.8 5.9zM344.5 27.3l73.3 73.3c.2-.2.4-.3.6-.5.1 0 .1-.1.2-.2 0 0 .1 0 .1-.1.2-.2.5-.4.7-.6l-.5-.5c.2-.2.4-.3.5-.5l-73.5-73.5c-.4-.4-1-.4-1.4 0-.3.3-.4.8-.1 1.2-.3.6-.3 1.1.1 1.4z"/><path class="st1" d="M418.7 121.2l.2.2c1.5 1.5 3.8 1.5 5.3 0 .9-.9 1.2-2 1-3.1.1-1.1-.2-2.3-1-3.1l-13.9-8.7 1 1.6-1-.6 8.4 13.7zm3.8-3.2c.1.1.1.2.2.3-.1.1-.1.3-.3.4-.5.5-1.2.5-1.7.1l-1.8-3 3.6 2.2zm34.4 25.3a6.64 6.64 0 0 0-9.4 0c-1.4 1.4-2.1 3.3-1.9 5.2-.1 1.9.5 3.8 1.9 5.2 2.6 2.6 6.8 2.6 9.4 0 1.4-1.4 2.1-3.3 1.9-5.2.1-1.9-.5-3.8-1.9-5.2zm-1.8 7.6c-1.6 1.6-4.3 1.6-5.9 0-.7-.7-1.1-1.5-1.2-2.4.1-.9.5-1.8 1.2-2.4 1.6-1.6 4.3-1.6 5.9 0 .7.7 1.1 1.5 1.2 2.4-.1.9-.5 1.7-1.2 2.4z"/></svg>